<?xml version="1.0" encoding="utf-8"?>
<!-- Generator: Adobe Illustrator 16.0.4, SVG Export Plug-In . SVG Version: 6.00 Build 0)  -->
<!DOCTYPE svg PUBLIC "-//W3C//DTD SVG 1.1//EN" "http://www.w3.org/Graphics/SVG/1.1/DTD/svg11.dtd">
<svg version="1.1" id="Layer_1" xmlns="http://www.w3.org/2000/svg" xmlns:xlink="http://www.w3.org/1999/xlink" x="0px" y="0px"
	 width="22px" height="26px" viewBox="0 0 22 26" enable-background="new 0 0 22 26" xml:space="preserve">
<polygon fill="#FFFFFF" points="2,26 20,26 11,24 "/>
<g>
	<path fill="#FFFFFF" d="M1,25c6,0,20-4,20-14c0-6-4-10-10-10S1,5,1,11c0,10,14,14,20,14"/>
	<path d="M21,26c-2.733,0-6.479-0.673-10.05-2.099C7.298,25.342,3.518,26,1,26v-2c1.851,0,4.559-0.41,7.353-1.295
		C3.752,20.275,0,16.439,0,11C0,4.42,4.42,0,11,0c6.58,0,11,4.42,11,11c0,4.742-2.863,8.766-8.282,11.634
		c-0.037,0.02-0.074,0.04-0.112,0.06C16.414,23.586,19.141,24,21,24V26z M11,2c-5.467,0-9,3.533-9,9c0,5.227,4.272,8.695,9,10.725
		c4.728-2.029,9-5.498,9-10.725C20,5.533,16.467,2,11,2z"/>
</g>
<g>
	<path d="M10.635,13.338c-0.446,0-0.77-0.338-0.831-0.753l-0.154-1.046c-0.077-0.507,0.215-0.861,0.707-0.923
		c1.339-0.169,1.955-0.585,1.955-1.338V9.246c0-0.692-0.523-1.091-1.416-1.091c-0.662,0-1.231,0.2-1.785,0.616
		C8.928,8.907,8.681,9.015,8.419,9.015c-0.584,0-1.076-0.492-1.076-1.077c0-0.293,0.123-0.6,0.399-0.831
		C8.558,6.431,9.589,6,10.943,6c2.215,0,3.723,1.139,3.723,3.185v0.03c0,1.954-1.354,2.754-3.031,3.092l-0.046,0.277
		c-0.062,0.399-0.385,0.753-0.831,0.753H10.635z M10.635,14.354c0.77,0,1.338,0.569,1.338,1.309v0.031
		c0,0.737-0.569,1.307-1.338,1.307s-1.339-0.569-1.339-1.307v-0.031C9.296,14.923,9.866,14.354,10.635,14.354z"/>
</g>
</svg>
