<?xml version="1.0" encoding="utf-8"?>
<!-- Generator: Adobe Illustrator 16.0.4, SVG Export Plug-In . SVG Version: 6.00 Build 0)  -->
<!DOCTYPE svg PUBLIC "-//W3C//DTD SVG 1.1//EN" "http://www.w3.org/Graphics/SVG/1.1/DTD/svg11.dtd">
<svg version="1.1" id="Layer_1" xmlns="http://www.w3.org/2000/svg" xmlns:xlink="http://www.w3.org/1999/xlink" x="0px" y="0px"
	 width="29px" height="30px" viewBox="0 0 29 30" enable-background="new 0 0 29 30" xml:space="preserve">
<polygon fill="#FFFFFF" points="3,28 22,28 12.5,26 "/>
<g>
	<path d="M24.947,17.709C26.215,18.977,27,20.727,27,22.656s-0.785,3.68-2.053,4.947l0.709,0.709C27.104,26.865,28,24.865,28,22.656
		S27.104,18.447,25.656,17L24.947,17.709z"/>
	<path fill="#FFFFFF" d="M25.656,17C27.104,18.447,28,20.447,28,22.656s-0.896,4.209-2.344,5.656l-0.709-0.709
		C26.215,26.336,27,24.586,27,22.656s-0.785-3.68-2.053-4.947L25.656,17 M25.656,15.586l-0.707,0.707l-0.709,0.709l-0.707,0.707
		l0.707,0.707c1.135,1.135,1.76,2.641,1.76,4.24s-0.625,3.105-1.76,4.24l-0.707,0.707l0.707,0.707l0.709,0.709l0.707,0.707
		l0.707-0.707C28.063,27.32,29,25.061,29,22.656s-0.937-4.664-2.637-6.364L25.656,15.586L25.656,15.586z"/>
</g>
<g>
	<path d="M26,22.656c0-1.656-0.672-3.156-1.758-4.242l-0.709,0.709C24.439,20.028,25,21.278,25,22.656
		c0,1.379-0.561,2.629-1.467,3.533l0.709,0.709C25.328,25.812,26,24.313,26,22.656z"/>
	<path fill="#FFFFFF" d="M24.242,18.414C25.328,19.5,26,21,26,22.656c0,1.657-0.672,3.156-1.758,4.242l-0.709-0.709
		C24.439,25.285,25,24.035,25,22.656c0-1.378-0.561-2.628-1.467-3.533L24.242,18.414 M24.242,17l-0.707,0.707l-0.709,0.709
		l-0.708,0.707l0.708,0.707C23.583,20.587,24,21.59,24,22.656c0,1.067-0.417,2.07-1.173,2.825l-0.709,0.707l0.708,0.708l0.709,0.709
		l0.707,0.707l0.707-0.707C26.271,26.283,27,24.525,27,22.656s-0.729-3.627-2.051-4.949L24.242,17L24.242,17z"/>
</g>
<g>
	<path d="M22.828,19.828l-0.708,0.709C22.664,21.08,23,21.83,23,22.656c0,0.828-0.336,1.578-0.88,2.121l0.708,0.708
		C23.553,24.762,24,23.762,24,22.656C24,21.553,23.553,20.553,22.828,19.828z"/>
	<path fill="#FFFFFF" d="M22.828,19.828C23.553,20.553,24,21.553,24,22.656c0,1.105-0.447,2.105-1.172,2.829l-0.708-0.708
		c0.544-0.543,0.88-1.293,0.88-2.121c0-0.826-0.336-1.576-0.88-2.119L22.828,19.828 M22.828,18.413l-0.708,0.708l-0.708,0.709
		l-0.706,0.708l0.708,0.707C21.792,21.622,22,22.124,22,22.656c0,0.534-0.208,1.036-0.586,1.413l-0.709,0.707l0.708,0.708
		l0.708,0.708l0.707,0.707l0.707-0.706c0.944-0.944,1.465-2.2,1.465-3.537c0-1.335-0.521-2.591-1.465-3.535L22.828,18.413
		L22.828,18.413z"/>
</g>
<g>
	<path fill="#FFFFFF" d="M23,27c-6,0-18-3-18-8c0-1.713,0-7.871,0-10c0-3,3-6,6-6c1.6,0,0.4,0,2.8,0C17,3,19,6,19,9c0,1.6,0,2,0,2
		l3,5h-3c0,0,0,1.4,0,3c0,5-11,8-17,8"/>
	<path d="M23,28c-2.449,0-6.771-0.606-10.672-1.892C8.836,27.361,4.856,28,2,28v-2c2.223,0,4.862-0.389,7.35-1.06
		C6.286,23.504,4,21.54,4,19V9c0-3.533,3.467-7,7-7h2.8C17.681,2,20,5.559,20,9v1.723L23.767,17H20v2c0,2.46-2.03,4.432-4.854,5.895
		C17.824,25.592,20.659,26,23,26V28z M11,4C8.57,4,6,6.57,6,9v10c0,1.936,2.714,3.717,6.244,4.998C15.517,22.728,18,20.957,18,19v-4
		h2.233L18,11.277V9c0-2.458-1.571-5-4.2-5H11z"/>
</g>
<path d="M24.947,17.709C26.215,18.977,27,20.727,27,22.656s-0.785,3.68-2.053,4.947l0.709,0.709C27.104,26.865,28,24.865,28,22.656
	S27.104,18.447,25.656,17L24.947,17.709z"/>
<path d="M26,22.656c0-1.656-0.672-3.156-1.758-4.242l-0.709,0.709C24.439,20.028,25,21.278,25,22.656
	c0,1.379-0.561,2.629-1.467,3.533l0.709,0.709C25.328,25.812,26,24.313,26,22.656z"/>
<path d="M22.828,19.828l-0.708,0.709C22.664,21.08,23,21.83,23,22.656c0,0.828-0.336,1.578-0.88,2.121l0.708,0.708
	C23.553,24.762,24,23.762,24,22.656C24,21.553,23.553,20.553,22.828,19.828z"/>
<path fill="#C41618" d="M1.5,29.5c-0.384,0-0.768-0.146-1.061-0.439c-0.586-0.586-0.586-1.535,0-2.121l26-26
	c0.586-0.586,1.535-0.586,2.121,0c0.586,0.585,0.586,1.536,0,2.121l-26,26C2.268,29.354,1.884,29.5,1.5,29.5z"/>
</svg>
