<?xml version="1.0" encoding="utf-8"?>
<!-- Generator: Adobe Illustrator 16.0.4, SVG Export Plug-In . SVG Version: 6.00 Build 0)  -->
<!DOCTYPE svg PUBLIC "-//W3C//DTD SVG 1.1//EN" "http://www.w3.org/Graphics/SVG/1.1/DTD/svg11.dtd">
<svg version="1.1" id="Layer_1" xmlns="http://www.w3.org/2000/svg" xmlns:xlink="http://www.w3.org/1999/xlink" x="0px" y="0px"
	 width="17px" height="17px" viewBox="0 0 17 17" enable-background="new 0 0 17 17" xml:space="preserve">
<path fill="#FFFFFF" d="M8,10v2H3V4h5v2h2V4c0-1.1-0.9-2-2-2H3C1.9,2,1,2.9,1,4v8c0,1.1,0.9,2,2,2h5c1.1,0,2-0.9,2-2v-2H8z"/>
<path fill="#FFFFFF" d="M14.724,8.5H6C5.724,8.5,5.5,8.276,5.5,8S5.724,7.5,6,7.5h8.724c0.276,0,0.5,0.224,0.5,0.5
	S15,8.5,14.724,8.5z"/>
<path fill="#FFFFFF" d="M12,11.5c-0.128,0-0.256-0.049-0.354-0.146c-0.195-0.195-0.195-0.512,0-0.707L14.293,8l-2.646-2.646
	c-0.195-0.195-0.195-0.512,0-0.707s0.512-0.195,0.707,0L15.707,8l-3.354,3.354C12.256,11.451,12.128,11.5,12,11.5z"/>
</svg>
