<?xml version="1.0" encoding="utf-8"?>
<!-- Generator: Adobe Illustrator 16.0.4, SVG Export Plug-In . SVG Version: 6.00 Build 0)  -->
<!DOCTYPE svg PUBLIC "-//W3C//DTD SVG 1.1//EN" "http://www.w3.org/Graphics/SVG/1.1/DTD/svg11.dtd">
<svg version="1.1" id="Layer_1" xmlns="http://www.w3.org/2000/svg" xmlns:xlink="http://www.w3.org/1999/xlink" x="0px" y="0px"
	 width="22px" height="26px" viewBox="0 0 22 26" enable-background="new 0 0 22 26" xml:space="preserve">
<polygon fill="#333333" points="2,26 20,26 11,24 "/>
<path fill="#333333" d="M1,25.062c6,0,20-4,20-14c0-6-4-10-10-10s-10,4-10,10c0,10,14,14,20,14"/>
<path fill="#FFFFFF" d="M21,26.062c-2.732,0-6.479-0.673-10.05-2.1c-3.652,1.441-7.432,2.1-9.95,2.1v-2
	c1.851,0,4.559-0.41,7.353-1.295C3.752,20.338,0,16.502,0,11.062c0-6.58,4.42-11,11-11s11,4.42,11,11
	c0,4.742-2.863,8.766-8.282,11.634c-0.036,0.021-0.073,0.04-0.112,0.06c2.809,0.893,5.535,1.307,7.395,1.307V26.062z M11,2.062
	c-5.467,0-9,3.533-9,9c0,5.227,4.272,8.695,9,10.725c4.729-2.029,9-5.498,9-10.725C20,5.596,16.467,2.062,11,2.062z"/>
<g>
	<path fill="#FFFFFF" d="M10.635,13.4c-0.446,0-0.77-0.338-0.831-0.753L9.65,11.602c-0.077-0.507,0.215-0.861,0.707-0.923
		c1.338-0.169,1.956-0.585,1.956-1.338V9.309c0-0.692-0.523-1.091-1.417-1.091c-0.662,0-1.231,0.2-1.785,0.616
		C8.928,8.97,8.681,9.078,8.419,9.078C7.835,9.078,7.343,8.585,7.343,8c0-0.293,0.123-0.6,0.399-0.831
		c0.816-0.676,1.847-1.107,3.201-1.107c2.215,0,3.723,1.139,3.723,3.185v0.03c0,1.954-1.354,2.754-3.031,3.092l-0.046,0.277
		c-0.062,0.399-0.385,0.753-0.831,0.753L10.635,13.4L10.635,13.4z M10.635,14.416c0.77,0,1.338,0.569,1.338,1.31v0.03
		c0,0.738-0.569,1.308-1.338,1.308c-0.769,0-1.339-0.569-1.339-1.308v-0.03C9.296,14.985,9.866,14.416,10.635,14.416z"/>
</g>
</svg>
