<?xml version="1.0" encoding="utf-8"?>
<!-- Generator: Adobe Illustrator 16.0.4, SVG Export Plug-In . SVG Version: 6.00 Build 0)  -->
<!DOCTYPE svg PUBLIC "-//W3C//DTD SVG 1.1//EN" "http://www.w3.org/Graphics/SVG/1.1/DTD/svg11.dtd">
<svg version="1.1" id="Layer_1" xmlns="http://www.w3.org/2000/svg" xmlns:xlink="http://www.w3.org/1999/xlink" x="0px" y="0px"
	 width="21px" height="22px" viewBox="0 -1.3 21 22" enable-background="new 0 -1.3 21 22" xml:space="preserve">
<path fill="#006AFF" d="M21,3.7c0-5-5-5-5-5H5c0,0-5,0-5,5v8c0,5,5,5,5,5h12l4,4V3.7z"/>
<g>
	<path fill="#FFFFFF" d="M9.006,2.558C8.956,2.07,9.226,1.7,9.681,1.7h1.649c0.454,0,0.723,0.37,0.673,0.858l-0.726,6.331
		c-0.051,0.455-0.353,0.74-0.771,0.74c-0.422,0-0.725-0.285-0.774-0.74L9.006,2.558z M10.506,10.741c0.84,0,1.465,0.623,1.465,1.432
		v0.033c0,0.81-0.625,1.433-1.465,1.433c-0.843,0-1.466-0.623-1.466-1.433v-0.033C9.04,11.364,9.663,10.741,10.506,10.741z"/>
</g>
</svg>
