<?xml version="1.0" encoding="utf-8"?>
<!-- Generator: Adobe Illustrator 16.0.4, SVG Export Plug-In . SVG Version: 6.00 Build 0)  -->
<!DOCTYPE svg PUBLIC "-//W3C//DTD SVG 1.1//EN" "http://www.w3.org/Graphics/SVG/1.1/DTD/svg11.dtd">
<svg version="1.1" id="Layer_1" xmlns="http://www.w3.org/2000/svg" xmlns:xlink="http://www.w3.org/1999/xlink" x="0px" y="0px"
	 width="110px" height="24px" viewBox="0 21 110 24" enable-background="new 0 21 110 24" xml:space="preserve">
<g>
	<path fill="#FFFFFF" d="M98.576,24.9c-0.367-0.57-0.891-0.191-1.987,0.465c-3.417,2.042-8.233,5.229-11.149,7.052
		c-4.246,2.653-9.879,6.708-11.478,7.679c-2.287,1.389-3.962,2.164-5.719,2.125c-0.517-0.014-2.857-0.873-1.604-4.277
		c1.438-3.897,2.596-5.514,4.059-9.405c1.578-4.207-1.553-6.304-4.411-5.896c-6.42,0.917-10.565,5.338-11.71,6.262
		c0.191-0.707,2.463-5.336,2.541-5.514c0.51-1.184-0.777-1.325-1.452-1.082c-0.51,0.184-2.487,3.059-2.94,3.696
		c-1.702,2.396-4.216,5.035-6.249,7.515c-4.084,4.983-8.332,8.945-9.885,8.616c-0.98-0.284-1.103-1.266-0.734-2.407
		c0.842-2.619,2.44-6.517,3.471-9.054c0.565-1.391,2.627-6.112,2.941-6.809c0.562-1.243,0.449-1.538-0.613-1.905
		c-0.38-0.132-0.964,0.24-1.225,0.572c-0.003,0.004-3.88,5.146-5.459,6.943c-1.982,2.256-5.009,5.935-8.931,9.584
		c-1.414,1.315-4.241,2.865-4.825,2.682c-0.85-0.27-0.784-1.646-0.472-2.832c0.35-1.323,2.006-5.659,3.063-7.963
		c0.85-1.854,1.027-2.317,1.878-4.168c0.452-0.982,0.663-1.652,1.104-2.641c0.153-0.345,0.63-0.994,0.545-1.361
		c-0.181-0.779-1.218-1.143-1.853-0.734c-0.058,0.036-1.257,1.011-1.688,1.334c-2.286,1.713-4.581,4.054-6.235,5.485
		c-3.415,2.96-10.538,9.162-16.188,9.162c-0.854,0-0.49,1.961,0,1.961c4.67,0,10.723-4.079,13.369-6.141
		c2.522-1.965,8.741-7.527,8.741-7.527c-0.433,1.623-3.912,9.033-4.629,11.435c-0.463,1.554-1.16,3.86,0.065,5.289
		c2.834,3.304,9.482-3.319,10.663-4.472c1.687-1.645,3.37-3.769,4.901-5.555c0.981-1.145,2.723-3.187,3.649-4.192
		c-1.198,2.122-1.784,3.319-2.178,4.247c-0.694,1.634-1.307,3.322-1.307,3.322c-0.83,2.199-1.457,3.787-1.238,4.928
		c0.288,1.51,1.48,2.791,3.318,2.771c3.42-0.035,6.507-3.896,7.532-4.978c1.96-2.069,4.445-5.048,5.038-5.636
		c0.533-0.533,2.887-3.459,2.887-3.459c-0.083,0.408-2.676,6.391-3.104,7.379c-0.397,0.914-1.465,3.129-1.988,4.33
		c-1.007,2.313,0.721,2.385,1.225,2.176c0.79-0.326,1.637-2.184,2.887-5.252c0.818-2.01,1.494-3.449,2.504-5.365
		c1.158-2.191,7.271-7.732,11.927-8.439c2.052-0.312,4.248,0.461,2.981,3.32c-0.658,1.486-3.362,7.27-3.989,9.203
		c-0.506,1.562-1.103,2.9,0.026,4.97c1.927,3.528,7.072,1.8,10.021-0.069c3.824-2.422,13.554-9.146,20.769-13.504
		C96.186,28.457,99.234,25.926,98.576,24.9z"/>
	<path fill="#FFFFFF" d="M108.459,38.025c-7.419,0-11.665,4.562-13.975,4.336c-2.332-0.227-1.385-2.256-0.864-3.791
		c1.662-4.901,6.562-14.018,5.854-14.812c-0.22-0.247-0.523-0.588-0.845-0.626c-0.223-0.026-0.872,0.062-0.897,0.056
		c-6.209-1.267-11.026-0.219-14.948,2.287c-4.537,2.897-8.539,7.618-8.55,13.096c-0.006,3.051,1.141,5.367,5.797,5.367
		c3.839,0,7.654-1.689,11.492-5.528c-0.178,0.651-1.551,2.991-0.082,4.789c1.713,2.094,4.685,1.362,6.102,0.6
		c1.512-0.813,6.152-3.81,10.916-3.81C108.771,39.195,109.501,37.991,108.459,38.025z M90.953,35.875
		c-4.792,5.854-17.5,10.536-13.561-1.279c0.816-2.451,7.95-12.308,19.387-9.258c0.221,0.059-1.123,2.571-1.227,2.75
		C94.357,30.163,93.021,33.35,90.953,35.875z"/>
</g>
</svg>
