<?xml version="1.0" encoding="utf-8"?>
<!-- Generator: Adobe Illustrator 16.0.4, SVG Export Plug-In . SVG Version: 6.00 Build 0)  -->
<!DOCTYPE svg PUBLIC "-//W3C//DTD SVG 1.1//EN" "http://www.w3.org/Graphics/SVG/1.1/DTD/svg11.dtd">
<svg version="1.1" id="Layer_1" xmlns="http://www.w3.org/2000/svg" xmlns:xlink="http://www.w3.org/1999/xlink" x="0px" y="0px"
	 width="32px" height="32px" viewBox="-0.5 0.5 32 32" enable-background="new -0.5 0.5 32 32" xml:space="preserve">
<radialGradient id="SVGID_1_" cx="5.2642" cy="5.6743" r="28.4902" gradientUnits="userSpaceOnUse">
	<stop  offset="0" style="stop-color:#00A3FF"/>
	<stop  offset="1" style="stop-color:#80D1FF"/>
</radialGradient>
<path fill="url(#SVGID_1_)" d="M4.187,27.814c1.25,1.25,2.708,2.294,4.315,3.078C10.616,31.922,12.99,32.5,15.5,32.5
	c4.418,0,8.418-1.791,11.314-4.686C29.709,24.918,31.5,20.918,31.5,16.5c0-3.268-0.98-6.308-2.663-8.841
	c-0.591-0.891-1.27-1.718-2.021-2.472C23.919,2.291,19.918,0.5,15.5,0.5c-2.51,0-4.884,0.578-6.998,1.607
	C6.895,2.891,5.437,3.935,4.187,5.187C3.433,5.939,2.754,6.768,2.163,7.658C0.48,10.191-0.5,13.231-0.5,16.5
	C-0.5,20.918,1.291,24.918,4.187,27.814z"/>
<circle fill="#FFFFFF" cx="15.5" cy="16.5" r="10"/>
</svg>
