<?xml version="1.0" encoding="utf-8"?>
<!-- Generator: Adobe Illustrator 16.0.4, SVG Export Plug-In . SVG Version: 6.00 Build 0)  -->
<!DOCTYPE svg PUBLIC "-//W3C//DTD SVG 1.1//EN" "http://www.w3.org/Graphics/SVG/1.1/DTD/svg11.dtd">
<svg version="1.1" id="Layer_1" xmlns="http://www.w3.org/2000/svg" xmlns:xlink="http://www.w3.org/1999/xlink" x="0px" y="0px"
	 width="110px" height="45px" viewBox="0 0 110 45" enable-background="new 0 0 110 45" xml:space="preserve">
<rect fill="#FFFFFF" width="110" height="24"/>
<polygon fill="#FFFFFF" points="56,22 54,29 61,25 66,23 69,24 70,28 68,32 66,37 65,40 68,43 75,41 80,43 85,42 90,39 92,37 92,42 
	94,43 100,41 104,39 110,39.062 110,22 "/>
<polygon fill="#FFFFFF" points="41,22 39,28 37,34 35,38 35,40 36,43 38,43 43,38 53,28 56,22 "/>
<polygon fill="#FFFFFF" points="26,22 24,29 22,33 20,37 19,40 20,42 22,43 26,41 31,36 37,29 41.938,22 "/>
<polygon fill="#FFFFFF" points="0,22 26,22 22.75,26 19.875,29 13.938,33 7.969,37 2.484,39 0,39 "/>
<g>
	<path d="M98.576,24.901c-0.367-0.571-0.891-0.192-1.987,0.464c-3.417,2.042-8.234,5.229-11.15,7.052
		c-4.246,2.654-9.879,6.708-11.477,7.679C71.675,41.484,70,42.26,68.243,42.22c-0.516-0.013-2.857-0.872-1.605-4.276
		c1.438-3.898,2.597-5.514,4.059-9.406c1.578-4.207-1.552-6.304-4.411-5.896c-6.42,0.917-10.565,5.338-11.71,6.263
		c0.191-0.708,2.463-5.337,2.541-5.514c0.51-1.184-0.777-1.325-1.452-1.082c-0.51,0.184-2.487,3.059-2.94,3.696
		c-1.702,2.396-4.216,5.035-6.249,7.515c-4.084,4.983-8.332,8.945-9.885,8.616c-0.98-0.284-1.103-1.266-0.734-2.408
		c0.842-2.619,2.44-6.516,3.471-9.053c0.565-1.391,2.627-6.113,2.941-6.809c0.562-1.243,0.449-1.538-0.613-1.905
		c-0.38-0.132-0.964,0.24-1.225,0.572c-0.003,0.004-3.88,5.146-5.459,6.943c-1.982,2.256-5.009,5.935-8.931,9.584
		c-1.414,1.316-4.241,2.866-4.825,2.682c-0.85-0.269-0.784-1.646-0.472-2.832c0.35-1.323,2.006-5.659,3.063-7.963
		c0.85-1.853,1.027-2.317,1.878-4.168c0.452-0.982,0.663-1.652,1.104-2.641c0.153-0.344,0.63-0.993,0.545-1.36
		c-0.181-0.779-1.218-1.143-1.853-0.734c-0.058,0.036-1.257,1.011-1.688,1.334c-2.286,1.713-4.581,4.053-6.235,5.486
		c-3.415,2.959-10.538,9.161-16.188,9.161c-0.854,0-0.49,1.962,0,1.962c4.67,0,10.723-4.08,13.369-6.141
		c2.522-1.965,8.741-7.528,8.741-7.528c-0.433,1.623-3.912,9.033-4.629,11.435c-0.463,1.553-1.16,3.86,0.065,5.289
		c2.834,3.303,9.482-3.319,10.663-4.472c1.687-1.644,3.37-3.768,4.901-5.555c0.981-1.144,2.723-3.186,3.649-4.192
		c-1.198,2.123-1.784,3.319-2.178,4.247c-0.694,1.634-1.307,3.322-1.307,3.322c-0.83,2.2-1.457,3.787-1.238,4.928
		c0.288,1.51,1.48,2.791,3.318,2.772c3.42-0.036,6.507-3.896,7.532-4.978c1.96-2.069,4.445-5.047,5.038-5.636
		c0.533-0.532,2.887-3.458,2.887-3.458c-0.083,0.408-2.676,6.39-3.104,7.378c-0.397,0.915-1.465,3.129-1.988,4.33
		c-1.007,2.314,0.721,2.385,1.225,2.177c0.79-0.327,1.637-2.185,2.887-5.253c0.818-2.01,1.494-3.449,2.504-5.365
		c1.158-2.192,7.271-7.733,11.927-8.44c2.051-0.312,4.248,0.462,2.981,3.321c-0.658,1.486-3.362,7.27-3.989,9.203
		c-0.506,1.562-1.103,2.9,0.026,4.97c1.927,3.528,7.072,1.799,10.021-0.069c3.824-2.422,13.553-9.147,20.769-13.504
		C96.185,28.457,99.234,25.926,98.576,24.901z"/>
	<path d="M108.459,38.025c-7.419,0-11.665,4.562-13.975,4.337c-2.331-0.227-1.384-2.256-0.864-3.792
		c1.662-4.901,6.562-14.017,5.855-14.812c-0.22-0.247-0.524-0.588-0.845-0.626c-0.223-0.026-0.872,0.061-0.897,0.055
		c-6.209-1.266-11.027-0.218-14.949,2.287c-4.537,2.898-8.539,7.619-8.55,13.097c-0.006,3.05,1.141,5.367,5.797,5.367
		c3.839,0,7.654-1.69,11.493-5.529c-0.179,0.652-1.552,2.992-0.082,4.789c1.713,2.094,4.684,1.362,6.101,0.6
		c1.512-0.813,6.152-3.81,10.916-3.81C108.771,39.196,109.501,37.991,108.459,38.025z M90.953,35.875
		c-4.792,5.854-17.5,10.536-13.56-1.279c0.816-2.451,7.95-12.308,19.386-9.258c0.221,0.059-1.123,2.571-1.226,2.75
		C94.358,30.163,93.021,33.35,90.953,35.875z"/>
</g>
<rect x="108" y="38" width="2" height="2"/>
<rect y="38" width="2" height="2"/>
</svg>
