<svg xmlns="http://www.w3.org/2000/svg" width="124" height="26" viewBox="0 0 124 26"> <defs> <linearGradient id="stod2-sport-a-1000700829" x1="50%" x2="50%" y1="0%" y2="100%"> <stop offset="0%" stop-color="#3B3B3B"></stop> <stop offset="100%" stop-color="#232323"></stop> </linearGradient> <linearGradient id="stod2-sport-b-1000700829" x1="50%" x2="50%" y1="0%" y2="100%"> <stop offset="0%" stop-color="#D41459"></stop> <stop offset="100%" stop-color="#9E005D"></stop> </linearGradient> </defs> <g class="logo__fill" fill="none" fill-rule="evenodd"> <path fill="url(#stod2-sport-a-1000700829)" d="M0 24.6533027C0 25.3967989.57468174 26 1.28414542 26h8.22169822c.73887656 0 .88626396-.0701475 1.26636846-.622856 3.0401892-4.4318335 10.1322402-14.7845263 10.7877265-15.94246906.8390741-1.48123143.2779675-3.67579897-2.8915089-2.56326573-2.1539253.75976226-4.5628696 2.00242427-5.8053199 2.67882279l-.1276711.06913091c-.5901962.31515562-.5384814.07726396-.3277432-.33209947.5963374-1.11151661 1.7524884-3.21357072 2.5214242-4.29594391 1.0624179-1.45378238 3.0262909-3.52770971 6.2820666-4.45724936C21.7777876.36700381 21.5379598.00271102 20.9901051 0L1.28511507.00271102C.57597461.00271102 0 .60320108 0 1.3487305V24.6533027zM44 .00271102L26.9007941 0c-.3073804 0-.2876641.2992284-.0045251.4259684l.0914708.03930974c2.503324 1.15082634 3.9584517 4.5185861 2.2660819 7.62168292-1.6400085 3.01058334-4.96366 8.43498774-6.2364928 10.49671554-.4011136.6526771-.1292872.8299098.2698871.8299098l6.7209967-.0047443c1.0711447 0 1.338446.2805902.6997671 1.2341901l-.0720776.1138626-2.996878 4.4284449C27.22078 25.807179 27.2673234 26 27.9124667 26H44V.00271102z"></path> <path fill="url(#stod2-sport-b-1000700829)" d="M44.2 26h77c1.104569 0 2-.8954305 2-2V2c0-1.1045695-.895431-2-2-2h-77v26z"></path> <path class="logo__cutout" fill="#FFF" d="M57.57566667 18.6151333c-.865-.2496666-1.58133334-.601-2.15-1.0533333l.87033333-1.95c1.195.8356667 2.53 1.2536667 4.004 1.2536667.789 0 1.39533333-.1246667 1.819-.3743334.42333333-.2493333.63533333-.60066663.63533333-1.05299997 0-.39466666-.19433333-.705-.583-.93166666-.389-.22633334-1.07066666-.44366667-2.04566666-.65266667-1.091-.22033333-1.95833334-.49-2.60233334-.80966667-.64433333-.319-1.11433333-.70766666-1.41-1.166-.296-.45866666-.444-1.03-.444-1.71433333 0-.743.20566667-1.41066667.618-2.00233333.41166667-.592.98933334-1.05333334 1.732-1.384.743-.33066667 1.60166667-.496 2.57666667-.496.88166667 0 1.729.12766666 2.54166667.38266666.812.25566667 1.462.60366667 1.94933333 1.04466667l-.87033333 1.94966667c-1.091-.83566667-2.292-1.25333334-3.60366667-1.25333334-.69633333 0-1.253.13933334-1.671.41766667-.41766667.27866667-.62666667.656-.62666667 1.13166667 0 .27866666.07833334.511.235.696.157.186.42066667.35133333.792.49666666.37133334.145.89933334.287 1.58433334.42633334 1.58966666.348 2.73566666.80066666 3.438 1.35766666.702.557 1.05300003 1.31733334 1.05300003 2.28066667 0 1.1603333-.45233337 2.08-1.3576667 2.759-.90533333.679-2.16466667 1.0183333-3.77766667 1.0183333-.94 0-1.84233333-.125-2.70666666-.374M72.2244333 11.7476c1.4156667 0 2.1236667-.534 2.1236667-1.602 0-1.079-.708-1.61866667-2.1236667-1.61866667h-2.559V11.7476h2.559zm-5.2746666-5.30966667h5.623c1.369 0 2.434.33033334 3.1943333.99233334.7596667.66133333 1.1403333 1.56066666 1.1403333 2.69833333 0 1.12566667-.3833333 2.02233333-1.1486666 2.68933333-.7663334.66766667-1.8283334 1.001-3.186 1.001h-2.9073334V18.8326h-2.7156666V6.43793333zM86.3858667 15.76876667c.5856666-.731.879-1.78166667.879-3.15066667 0-1.36966667-.2933334-2.414-.879-3.134-.5863334-.71933333-1.4013334-1.079-2.446-1.079-1.0446667 0-1.86.35966667-2.446 1.079-.586.72-.8786667 1.76433333-.8786667 3.134 0 1.38066667.2926667 2.43433333.8786667 3.15933333.586.72533337 1.4013333 1.08799997 2.446 1.08799997 1.0446666 0 1.8596666-.3656666 2.446-1.09666663m-5.658 2.44566663c-.911-.5163333-1.613-1.256-2.106-2.2193333-.4933334-.96333333-.74-2.089-.74-3.377 0-1.28833333.2466666-2.40833333.74-3.36.493-.95166667 1.195-1.68566667 2.106-2.20233333.9113333-.516 1.982-.77433334 3.212-.77433334 1.23 0 2.298.25833334 3.203.77433334.9053333.51666666 1.6016666 1.25066666 2.089 2.20233333.4876666.95166667.731 2.07166667.731 3.36 0 1.288-.2433334 2.41366667-.731 3.377-.4873334.9633333-1.1836667 1.703-2.089 2.2193333-.905.5166667-1.973.7746667-3.203.7746667-1.23 0-2.3006667-.258-3.212-.7746667M96.7696667 11.76486667c.7773333 0 1.346-.13066667 1.706-.39166667.3593333-.26133333.5393333-.67033333.5393333-1.22733333s-.18-.96633334-.5393333-1.22733334c-.36-.261-.9286667-.39166666-1.706-.39166666h-2.472v3.238h2.472zm5.344 7.06766663h-2.872l-1.5843334-4.12599997c-.128-.32433333-.322-.55066666-.583-.67866666-.261-.12766667-.5893333-.19133334-.9836666-.19133334h-1.7583334v4.99599997h-2.6806666V6.4382H97.17c1.439 0 2.5296667.313 3.273.93966667.7423333.627 1.1136667 1.52633333 1.1136667 2.69866666 0 .82366667-.2173334 1.53133334-.6526667 2.12366667-.435.59166667-1.059 1.01566667-1.8713333 1.27033333.731.151 1.259.65633334 1.584 1.51466667l1.497 3.8473333zM106.3963 18.8325667V8.6489h-3.882v-2.211h10.5143333v2.211h-3.882v10.1836667z"></path></g></svg>