<?xml version="1.0" encoding="utf-8"?>
<!-- Generator: Adobe Illustrator 16.0.4, SVG Export Plug-In . SVG Version: 6.00 Build 0)  -->
<!DOCTYPE svg PUBLIC "-//W3C//DTD SVG 1.1//EN" "http://www.w3.org/Graphics/SVG/1.1/DTD/svg11.dtd">
<svg version="1.1" id="Layer_1" xmlns="http://www.w3.org/2000/svg" xmlns:xlink="http://www.w3.org/1999/xlink" x="0px" y="0px"
	 width="206.28px" height="45.031px" viewBox="0 0 206.28 45.031" enable-background="new 0 0 206.28 45.031" xml:space="preserve">
<g>
	<path fill="#EE702E" d="M32.057,4.996L32.05,4.98l-0.013-0.01c-3.216-1.834-6.883-2.803-10.606-2.803
		c-3.721,0-7.389,0.969-10.607,2.803l-0.012,0.01l-0.008,0.016c-0.525,1.336-0.792,2.74-0.792,4.174
		c0,6.297,5.122,11.42,11.418,11.42c6.297,0,11.419-5.123,11.419-11.42C32.849,7.736,32.583,6.334,32.057,4.996z M21.43,19.404
		c-4.306,0-7.812-3.504-7.812-7.811c0-4.309,3.506-7.814,7.812-7.814c4.308,0,7.811,3.506,7.811,7.814
		C29.241,15.9,25.738,19.404,21.43,19.404z"/>
	<path fill="#EE702E" d="M26.859,23.638l1.765-0.187c4.738-0.496,9.441-1.506,13.97-2.994l0.038-0.012l-0.005-0.041
		c-0.245-1.639-0.682-3.248-1.3-4.785l-0.024-0.059L41.254,15.6c-3.777,3.027-8.084,5.105-12.798,6.18l-1.701,0.389l1.649-0.568
		c4.703-1.613,8.727-4.848,11.328-9.107l0.018-0.023l-0.018-0.025c-0.927-1.521-2.049-2.926-3.33-4.178l-0.067-0.066l-0.013,0.094
		c-0.874,7.547-7.269,13.238-14.876,13.238c-3.817,0-7.454-1.436-10.238-4.047c-2.594-2.428-4.242-5.705-4.641-9.219L6.555,8.17
		L6.487,8.236c-1.284,1.25-2.409,2.656-3.341,4.178L3.13,12.439l0.016,0.023c2.672,4.396,6.835,7.688,11.716,9.262l1.661,0.537
		l-1.708-0.357c-4.882-1.016-9.337-3.105-13.248-6.207l-0.05-0.041l-0.024,0.059c-0.591,1.5-1.012,3.064-1.254,4.658l-0.006,0.041
		l0.039,0.012c4.559,1.506,9.293,2.523,14.066,3.025l1.77,0.187H0v0.045c0.008,2.279,0.373,4.521,1.085,6.664l0.017,0.055
		l0.049-0.031c4.035-2.477,8.433-4.18,13.071-5.053l1.155-0.219l-1.104,0.398c-4.651,1.674-8.614,4.938-11.155,9.197l-0.013,0.023
		l0.013,0.023c0.95,1.557,2.098,2.99,3.413,4.262l0.071,0.068l0.01-0.094c0.748-7.703,7.157-13.512,14.904-13.512
		c3.82,0,7.455,1.436,10.24,4.047c2.618,2.451,4.269,5.76,4.65,9.311l0.012,0.096l0.066-0.066c1.292-1.271,2.416-2.703,3.347-4.256
		l0.011-0.023l-0.014-0.025c-2.528-4.16-6.431-7.365-10.99-9.023l-1.103-0.4l1.152,0.223c4.554,0.877,8.874,2.551,12.84,4.973
		l0.049,0.031l0.019-0.055c0.699-2.129,1.06-4.357,1.066-6.617v-0.047L26.859,23.638z"/>
	<path fill="#EE702E" d="M21.43,26.589c-6.296,0-11.418,5.121-11.418,11.416c0,1.441,0.27,2.854,0.801,4.191l0.005,0.02l0.014,0.008
		c0.143,0.084,0.3,0.174,0.479,0.271c3.09,1.658,6.59,2.535,10.12,2.535c3.718,0,7.382-0.967,10.594-2.797l0.016-0.01l0.005-0.014
		c0.532-1.344,0.803-2.758,0.803-4.205C32.849,31.71,27.727,26.589,21.43,26.589z M21.43,43.398c-4.306,0-7.811-3.506-7.811-7.811
		c0-4.312,3.505-7.816,7.811-7.816c4.308,0,7.811,3.504,7.811,7.816C29.241,39.892,25.738,43.398,21.43,43.398z"/>
</g>
<path fill="#EE702E" d="M57.424,41.705l0.002-35.064c0,0,15.067-0.023,15.346-0.023c9.837,0,14.417,3.707,14.417,11.877v1.309
	c0,6.115-2.397,9.099-7.059,9.839l-0.748,0.117l7.945,11.936h-7.821l-10.34-15.902c1.064-0.012,2.626-0.047,3.393-0.064
	c0.31-0.008,0.517-0.012,0.557-0.012c4.036,0,6.083-1.557,6.083-5.82V19.15c0-2.85-0.764-6.064-5.886-6.064
	c-0.536,0-5.294,0.002-7.176,0.031l-0.954,0.018l0.015,28.57H57.424"/>
<polyline fill="#EE702E" points="103.22,4.623 105.368,0 113.954,0 109.778,4.623 103.22,4.623 "/>
<path fill="#EE702E" d="M117.452,41.705l-2.68-7.676h-14.656l-2.832,7.676h-7.972L102.67,6.629h9.981l13.527,35.076H117.452
	 M107.747,11.4l-5.979,17.476h11.264L107.747,11.4z"/>
<path fill="#EE702E" d="M138.663,42.484c-3.375,0-7.203-0.514-10.08-1.348l0.65-6.264c2.793,1.281,6.119,1.982,9.43,1.982
	c4.568,0,6.885-1.484,6.885-4.412c0-3.465-3.627-4.562-7.137-5.625c-4.812-1.453-10.262-3.1-10.262-10.296
	c0-9.439,10.633-10.459,15.205-10.459c3.045,0,6.238,0.422,8.615,1.131l-0.482,5.812c-2.264-0.861-4.828-1.314-7.447-1.314
	c-2.027,0-7.414,0-7.414,4.25c0,3.012,3.279,3.936,6.75,4.912c4.994,1.402,10.65,2.99,10.65,10.326
	C154.026,40.523,145.671,42.484,138.663,42.484"/>
<path fill="#EE702E" d="M165.394,3.354V44.24h40.887V3.354H165.394z M196.458,37.443h-19.619v-5.168
	c5.516-4.779,11.887-9.984,11.887-13.636c0-2.408-1.67-3.42-3.846-3.42c-2.33,0-5.439,0.895-7.109,1.865l-0.271-5.635
	c3.885-1.396,6.447-1.592,8.041-1.592c6.061,0,10.412,2.564,10.412,7.965c0,5.283-5.711,10.605-8.275,12.82l-1.943,1.672h10.725
	V37.443z"/>
</svg>
