<?xml version="1.0" encoding="utf-8"?>
<!-- Generator: Adobe Illustrator 16.0.4, SVG Export Plug-In . SVG Version: 6.00 Build 0)  -->
<!DOCTYPE svg PUBLIC "-//W3C//DTD SVG 1.1//EN" "http://www.w3.org/Graphics/SVG/1.1/DTD/svg11.dtd">
<svg version="1.1" id="Layer_1" xmlns="http://www.w3.org/2000/svg" xmlns:xlink="http://www.w3.org/1999/xlink" x="0px" y="0px"
	 width="595.28px" height="294px" viewBox="1.001 272.448 595.28 294" enable-background="new 1.001 272.448 595.28 294"
	 xml:space="preserve">
<rect x="1.001" y="272.447" fill="#020B75" width="595.28" height="294.002"/>
<g>
	<path fill="#FFFFFF" d="M168.589,487.471v-86.688c0-7.728-0.468-14.616-1.396-20.664c-0.93-6.048-2.656-11.13-5.188-15.246
		c-2.53-4.116-6.032-7.224-10.505-9.324c-4.479-2.095-10.259-3.15-17.352-3.15c-6.41,0-11.938,1.48-16.579,4.452
		c-4.642,2.966-8.82,6.4-12.532,10.3c-2.362-4.41-5.78-7.969-10.248-10.684s-10.752-4.069-18.848-4.069
		c-4.384,0-8.604,1.103-12.647,3.302c-4.053,2.205-7.765,5.087-11.135,8.647v-9.177H22.171v132.301h29.988v-96.039
		c1.848-2.683,4.283-5.192,7.308-7.544c3.024-2.347,6.132-3.518,9.319-3.518c4.877,0,8.021,1.549,9.455,4.651
		c1.423,3.098,2.142,8.757,2.142,16.974v85.481h29.983v-96.044c1.853-2.683,4.284-5.192,7.313-7.544
		c3.023-2.347,6.132-3.518,9.323-3.518c4.872,0,8.018,1.549,9.45,4.651c1.423,3.098,2.143,8.757,2.143,16.974v85.481h29.993V487.471
		z"/>
	<path fill="#FFFFFF" d="M287.906,421.194c0-23.52-3.308-40.866-9.917-52.038c-6.61-11.172-16.103-16.758-28.487-16.758
		c-4.855,0-9.46,1.103-13.808,3.302c-4.352,2.205-8.2,5.087-11.55,8.647v-60.585l-29.988,14.868v168.841h29.988l-0.252-7.402
		c2.856,3.05,6.3,5.507,10.332,7.376c4.037,1.864,8.232,2.799,12.601,2.799c7.224,0,13.445-1.723,18.647-5.166
		c5.208-3.444,9.45-8.19,12.731-14.238c3.271-6.048,5.712-13.314,7.309-21.793C287.109,440.557,287.906,431.274,287.906,421.194z
		 M257.918,422.197c0,7.681-0.294,14.07-0.882,19.157c-0.588,5.093-1.47,9.188-2.646,12.274c-1.181,3.087-2.692,5.298-4.535,6.637
		c-1.849,1.338-4.116,2.005-6.805,2.005c-4.2,0-7.896-1.171-11.088-3.507c-3.187-2.336-5.796-4.925-7.812-7.765v-59.604
		c1.853-2.672,4.457-5.176,7.812-7.513c3.365-2.336,6.888-3.507,10.584-3.507c6.222,0,10.338,3.339,12.354,10.017
		C256.91,397.07,257.918,407.676,257.918,422.197z"/>
	<polygon fill="#FFFFFF" points="342.428,487.471 342.428,303.762 312.44,318.63 312.44,487.471 	"/>
	<path fill="#FFFFFF" d="M409.104,469.327c0-5.713-2.063-10.626-6.175-14.742c-4.115-4.116-9.035-6.175-14.747-6.175
		s-10.621,2.059-14.742,6.175c-4.116,4.116-6.174,9.029-6.174,14.742c0,5.712,2.058,10.626,6.174,14.741
		c4.116,4.116,9.03,6.175,14.742,6.175s10.632-2.059,14.747-6.175C407.045,479.953,409.104,475.039,409.104,469.327z"/>
	<path fill="#FFFFFF" d="M468.129,323.418c0-5.208-1.853-9.66-5.544-13.356c-3.696-3.696-8.153-5.544-13.355-5.544
		c-5.208,0-9.666,1.848-13.356,5.544c-3.696,3.696-5.549,8.148-5.549,13.356s1.853,9.66,5.549,13.356
		c3.69,3.696,8.148,5.544,13.356,5.544c5.202,0,9.659-1.848,13.355-5.544C466.277,333.078,468.129,328.626,468.129,323.418z
		 M464.35,487.471V355.17h-29.988v132.301H464.35z"/>
	<path fill="#FFFFFF" d="M573.11,448.568c0-10.442-2.646-18.69-7.943-24.754c-5.293-6.064-12.806-11.451-22.555-16.165
		c-4.536-2.189-8.227-4.084-11.083-5.686c-2.855-1.601-5.129-3.076-6.804-4.42c-1.68-1.349-2.814-2.651-3.402-3.917
		c-0.588-1.26-0.882-2.651-0.882-4.168c0-2.693,1.003-4.883,3.024-6.562c2.016-1.686,4.704-2.525,8.063-2.525
		c4.872,0,9.282,0.588,13.23,1.764c3.948,1.176,8.778,3.276,14.49,6.3l10.332-24.045c-5.875-3.996-11.797-6.999-17.767-8.994
		c-5.964-1.995-12.474-2.992-19.529-2.992c-5.881,0-11.341,0.882-16.381,2.651c-5.04,1.769-9.366,4.294-12.978,7.576
		c-3.612,3.287-6.432,7.287-8.442,11.996c-2.016,4.715-3.019,10.017-3.019,15.913c0,10.269,2.389,18.475,7.177,24.623
		s11.97,11.576,21.551,16.296c4.699,2.357,8.568,4.337,11.593,5.933c3.023,1.602,5.46,3.16,7.308,4.673
		c1.854,1.517,3.155,2.987,3.906,4.42c0.756,1.429,1.134,3.071,1.134,4.925c0,3.371-1.134,6.017-3.396,7.959
		c-2.273,1.938-5.76,2.903-10.458,2.903c-10.248,0-20.832-3.864-31.752-11.592l-10.59,25.331
		c6.222,4.825,12.685,8.405,19.404,10.736s14.196,3.497,22.423,3.497c12.601,0,22.979-3.533,31.128-10.605
		C569.03,472.566,573.11,462.208,573.11,448.568z"/>
</g>
<path fill="#FFFFFF" d="M569.329,533.299H25.95c-5.801,0-10.5-4.699-10.5-10.501c0-5.796,4.699-10.5,10.5-10.5h543.379
	c5.796,0,10.5,4.704,10.5,10.5C579.829,528.6,575.125,533.299,569.329,533.299z"/>
</svg>
