<?xml version="1.0" encoding="utf-8"?>
<!-- Generator: Adobe Illustrator 16.0.4, SVG Export Plug-In . SVG Version: 6.00 Build 0)  -->
<!DOCTYPE svg PUBLIC "-//W3C//DTD SVG 1.1//EN" "http://www.w3.org/Graphics/SVG/1.1/DTD/svg11.dtd">
<svg version="1.1" id="Layer_1" xmlns="http://www.w3.org/2000/svg" xmlns:xlink="http://www.w3.org/1999/xlink" x="0px" y="0px"
	 width="600.399px" height="131.483px" viewBox="0 0 600.399 131.483" enable-background="new 0 0 600.399 131.483"
	 xml:space="preserve">
<path fill="#662483" d="M167.138,121.387l0.005-102.064c0,0,43.855-0.065,44.667-0.065c28.631,0,41.962,10.795,41.962,34.575v3.806
	c0,17.799-6.977,26.485-20.546,28.634l-2.177,0.344l23.125,34.743H231.41l-30.095-46.288c3.097-0.034,7.643-0.134,9.876-0.188
	c0.902-0.023,1.503-0.04,1.62-0.04c11.748,0,17.705-4.52,17.705-16.938v-2.174c0-8.286-2.223-17.646-17.131-17.646
	c-1.561,0-15.409,0-20.888,0.094l-2.775,0.048l0.043,83.16H167.138"/>
<path fill="#662483" d="M62.375,77.805c-18.326,0-33.234,14.905-33.234,33.228c0,4.2,0.786,8.308,2.332,12.205l0.014,0.048
	l0.042,0.025c0.417,0.245,0.873,0.506,1.394,0.796c8.993,4.827,19.181,7.376,29.456,7.376c10.821,0,21.486-2.813,30.834-8.141
	l0.047-0.031l0.014-0.039c1.549-3.911,2.338-8.024,2.338-12.239C95.611,92.71,80.703,77.805,62.375,77.805 M62.375,126.731
	c-12.533,0-22.734-10.207-22.734-22.739c0-12.544,10.201-22.748,22.734-22.748c12.538,0,22.733,10.204,22.733,22.748
	C85.108,116.524,74.913,126.731,62.375,126.731 M62.375,60.338c18.328,0,33.236-14.908,33.236-33.236
	c0-4.167-0.774-8.257-2.305-12.146l-0.021-0.048l-0.037-0.029c-9.362-5.338-20.035-8.158-30.87-8.158
	c-10.831,0-21.507,2.82-30.874,8.158l-0.034,0.029l-0.024,0.048c-1.528,3.886-2.305,7.976-2.305,12.146
	C29.14,45.43,44.048,60.338,62.375,60.338 M62.375,11.421c12.538,0,22.733,10.198,22.733,22.733
	c0,12.543-10.195,22.742-22.733,22.742c-12.533,0-22.737-10.198-22.737-22.742C39.637,21.619,49.841,11.421,62.375,11.421
	 M78.175,69.215l5.138-0.54c13.79-1.449,27.479-4.386,40.661-8.721l0.111-0.028l-0.014-0.12c-0.713-4.772-1.986-9.457-3.783-13.928
	l-0.071-0.173l-0.142,0.117c-10.993,8.803-23.529,14.857-37.25,17.984l-4.951,1.125l4.799-1.648
	c13.689-4.699,25.401-14.113,32.972-26.511l0.053-0.071l-0.053-0.068c-2.697-4.428-5.963-8.519-9.692-12.163l-0.195-0.19
	l-0.039,0.267c-2.544,21.969-21.157,38.54-43.298,38.54c-11.11,0-21.696-4.181-29.798-11.779
	c-7.551-7.075-12.347-16.605-13.508-26.838l-0.034-0.276l-0.199,0.193c-3.736,3.641-7.011,7.731-9.724,12.16L9.11,36.622
	l0.047,0.065c7.777,12.799,19.894,22.375,34.1,26.96l4.835,1.561l-4.971-1.035c-14.209-2.959-27.176-9.047-38.56-18.072
	l-0.145-0.116l-0.069,0.17c-1.721,4.36-2.946,8.922-3.651,13.558l-0.017,0.12l0.114,0.028c13.27,4.386,27.048,7.351,40.94,8.814
	l5.152,0.54H0v0.136c0.023,6.626,1.086,13.155,3.158,19.394l0.05,0.165l0.142-0.097c11.745-7.208,24.545-12.165,38.045-14.706
	l3.361-0.637l-3.213,1.157C28.006,79.496,16.47,89,9.076,101.399l-0.038,0.068l0.038,0.065c2.764,4.528,6.105,8.706,9.933,12.407
	l0.208,0.202l0.028-0.278c2.177-22.421,20.832-39.33,43.381-39.33c11.118,0,21.699,4.187,29.804,11.784
	c7.621,7.132,12.425,16.762,13.534,27.102l0.036,0.273l0.191-0.19c3.761-3.704,7.032-7.873,9.742-12.388l0.032-0.067l-0.04-0.08
	c-7.359-12.1-18.718-21.432-31.988-26.258l-3.21-1.171l3.353,0.653c13.256,2.553,25.829,7.425,37.373,14.474l0.143,0.091
	l0.055-0.165c2.035-6.196,3.085-12.677,3.103-19.257v-0.137L78.175,69.215z"/>
<polyline fill="#662483" points="300.43,13.447 306.686,0 331.674,0 319.52,13.447 300.43,13.447 "/>
<path fill="#662483" d="M481.394,10.349v119.002h119.005V10.349H481.394z M555.901,109.563h-20.258V51.811l-15.999,5.651V38.56
	l21.695-8.428h14.562V109.563z"/>
<path fill="#662483" d="M341.858,121.387l-7.802-22.341H291.4l-8.241,22.341h-23.204l38.878-102.099h29.049l39.375,102.099H341.858
	 M313.608,33.179l-17.401,50.867h32.784L313.608,33.179z"/>
<path fill="#662483" d="M403.592,123.647c-9.82,0-20.966-1.492-29.34-3.92l1.894-18.229c8.129,3.727,17.813,5.765,27.446,5.765
	c13.299,0,20.041-4.312,20.041-12.83c0-10.1-10.559-13.288-20.771-16.375c-14.008-4.232-29.871-9.022-29.871-29.973
	c0-27.478,30.951-30.448,44.259-30.448c8.862,0,18.154,1.225,25.073,3.297l-1.404,16.918c-6.589-2.507-14.05-3.826-21.674-3.826
	c-5.903,0-21.579,0-21.579,12.37c0,8.771,9.542,11.455,19.644,14.292c14.536,4.084,30.999,8.712,30.999,30.063
	C448.308,117.939,423.992,123.647,403.592,123.647"/>
</svg>
