<?xml version="1.0" encoding="utf-8"?>
<!-- Generator: Adobe Illustrator 16.0.4, SVG Export Plug-In . SVG Version: 6.00 Build 0)  -->
<!DOCTYPE svg PUBLIC "-//W3C//DTD SVG 1.1//EN" "http://www.w3.org/Graphics/SVG/1.1/DTD/svg11.dtd">
<svg version="1.1" id="Layer_1" xmlns="http://www.w3.org/2000/svg" xmlns:xlink="http://www.w3.org/1999/xlink" x="0px" y="0px"
	 width="1118.657px" height="237.076px" viewBox="0 0 1118.657 237.076" enable-background="new 0 0 1118.657 237.076"
	 xml:space="preserve">
<g>
	<path fill="#324999" d="M309.927,218.35l0.011-189.256c0,0,81.322-0.124,82.829-0.124c53.087,0,77.806,20.018,77.806,64.107v7.06
		c0,33.005-12.934,49.113-38.097,53.107l-4.037,0.633l42.882,64.419h-42.212l-55.807-85.833c5.74-0.059,14.173-0.248,18.315-0.349
		c1.671-0.041,2.784-0.072,3.004-0.072c21.779,0,32.826-8.378,32.826-31.409v-4.03c0-15.361-4.122-32.728-31.761-32.728
		c-2.898,0-28.578,0.005-38.734,0.177l-5.149,0.092l0.084,154.206H309.927"/>
	<path fill="#324999" d="M115.663,137.54c-33.982,0-61.627,27.635-61.627,61.614c0,7.784,1.458,15.399,4.325,22.633l0.026,0.095
		l0.077,0.041c0.772,0.454,1.618,0.938,2.585,1.465c16.677,8.955,35.566,13.688,54.621,13.688c20.065,0,39.841-5.218,57.176-15.101
		l0.087-0.053l0.026-0.079c2.873-7.247,4.335-14.884,4.335-22.689C177.293,165.174,149.648,137.54,115.663,137.54 M115.663,228.258
		c-23.241,0-42.157-18.923-42.157-42.166c0-23.254,18.917-42.176,42.157-42.176c23.249,0,42.155,18.922,42.155,42.176
		C157.818,209.335,138.912,228.258,115.663,228.258 M115.663,105.153c33.985,0,61.63-27.645,61.63-61.638
		c0-7.722-1.436-15.306-4.274-22.527l-0.04-0.082l-0.068-0.047c-17.359-9.903-37.15-15.134-57.242-15.134
		c-20.084,0-39.881,5.231-57.25,15.134l-0.063,0.042l-0.045,0.087c-2.833,7.216-4.274,14.8-4.274,22.527
		C54.035,77.508,81.68,105.153,115.663,105.153 M115.663,14.441c23.249,0,42.155,18.911,42.155,42.158
		c0,23.252-18.906,42.163-42.155,42.163c-23.241,0-42.163-18.911-42.163-42.163C73.5,33.353,92.422,14.441,115.663,14.441
		 M144.963,121.608l9.526-1.004c25.571-2.688,50.955-8.127,75.397-16.165l0.206-0.058l-0.026-0.216
		c-1.323-8.852-3.682-17.536-7.015-25.832l-0.132-0.319l-0.264,0.21c-20.384,16.332-43.63,27.553-69.072,33.356l-9.182,2.082
		l8.899-3.054c25.384-8.71,47.102-26.172,61.14-49.158l0.098-0.129l-0.098-0.135c-5.002-8.209-11.058-15.793-17.973-22.556
		l-0.361-0.345l-0.071,0.49c-4.717,40.745-39.232,71.471-80.289,71.471c-20.601,0-40.231-7.756-55.255-21.842
		C46.49,75.284,37.596,57.614,35.443,38.631l-0.063-0.5l-0.369,0.355c-6.928,6.752-13,14.329-18.031,22.548l-0.087,0.137
		l0.087,0.124c14.42,23.731,36.89,41.483,63.232,49.987l8.966,2.888l-9.219-1.91C53.611,106.766,29.566,95.487,8.457,78.75
		l-0.269-0.222l-0.129,0.319c-3.191,8.091-5.463,16.542-6.771,25.144l-0.031,0.21l0.211,0.066
		c24.606,8.127,50.156,13.627,75.917,16.337l9.553,1.004H0v0.248c0.042,12.288,2.014,24.391,5.856,35.965l0.092,0.305l0.263-0.178
		c21.779-13.368,45.515-22.555,70.548-27.266l6.233-1.187l-5.959,2.14c-25.101,9.035-46.493,26.659-60.204,49.656l-0.071,0.121
		l0.071,0.127c5.125,8.391,11.321,16.145,18.418,23.011l0.385,0.369l0.053-0.517c4.037-41.575,38.629-72.926,80.441-72.926
		c20.617,0,40.237,7.759,55.266,21.842c14.131,13.229,23.041,31.087,25.096,50.256l0.066,0.507l0.356-0.354
		c6.973-6.868,13.04-14.595,18.065-22.97l0.058-0.127l-0.074-0.146c-13.646-22.443-34.71-39.74-59.317-48.69l-5.953-2.173
		l6.217,1.214c24.58,4.731,47.895,13.767,69.302,26.843l0.264,0.163l0.103-0.295c3.774-11.501,5.722-23.513,5.753-35.722v-0.248
		L144.963,121.608z"/>
	<polyline fill="#324999" points="555.968,24.938 567.563,0 613.904,0 591.355,24.938 555.968,24.938 	"/>
	<polyline fill="#324999" points="806.295,29.031 849.716,29.031 798.62,218.296 724.23,218.35 673.231,29.031 716.672,29.031 
		761.452,183.899 806.295,29.031 	"/>
	<path fill="#324999" d="M567.206,223.831c-35.22,0-73.03-24.889-73.03-85.949c0-3.104,0.031-92.309,0.042-108.824h42.818
		c0.021,17.367,0.148,115.47,0.148,116.705c0,28.692,20.682,39.097,34.574,39.097h8.17c14.116,0,35.113-10.404,35.113-39.097
		c0-1.234-0.052-99.333-0.062-116.705h42.935c0.021,16.505,0.116,105.719,0.116,108.824c0,61.061-37.707,85.949-73.01,85.949
		H567.206"/>
	<path fill="#324999" d="M1002.997,5.74c-63.88,0-115.664,51.782-115.664,115.66c0,63.88,51.784,115.66,115.664,115.66
		c63.876,0,115.66-51.78,115.66-115.66C1118.657,57.521,1066.873,5.74,1002.997,5.74z M1055.936,190.446H950.048v-27.893
		c29.77-25.795,64.155-53.887,64.155-73.6c0-12.998-9.013-18.458-20.757-18.458c-12.575,0-29.353,4.828-38.37,10.067l-1.465-30.411
		c20.966-7.538,34.796-8.591,43.397-8.591c32.711,0,56.196,13.84,56.196,42.987c0,28.515-30.822,57.241-44.663,69.194l-10.488,9.023
		h57.882V190.446z"/>
</g>
</svg>
