<?xml version="1.0" encoding="utf-8"?>
<!-- Generator: Adobe Illustrator 16.0.4, SVG Export Plug-In . SVG Version: 6.00 Build 0)  -->
<!DOCTYPE svg PUBLIC "-//W3C//DTD SVG 1.1//EN" "http://www.w3.org/Graphics/SVG/1.1/DTD/svg11.dtd">
<svg version="1.1" id="Layer_1" xmlns="http://www.w3.org/2000/svg" xmlns:xlink="http://www.w3.org/1999/xlink" x="0px" y="0px"
	 width="587.53px" height="281.45px" viewBox="0.5 279.692 587.53 281.45" enable-background="new 0.5 279.692 587.53 281.45"
	 xml:space="preserve">
<polyline fill="#3D6AB9" points="0.5,394.659 54.448,394.659 65.382,486.977 107.394,395.01 156.812,395.01 72.461,553.426 
	27.224,553.426 0.5,394.659 "/>
<polyline fill="#3D6AB9" points="163.672,394.659 216.36,394.659 187.929,553.426 134.482,553.426 163.672,394.659 "/>
<path fill="#3D6AB9" d="M357.284,407.425l-14.024,33.969c-16.203-6.816-33.168-9.964-50.888-9.375
	c-18.806,0-23.1,16.838,8.106,24.486c53.943,10.523,57.682,56.812,28.696,88.24c-22.737,22.205-86.817,21.516-120.759,0
	l13.545-33.986c21.174,9.525,38.922,14.009,53.271,13.49c32.64-2.049,29.25-24.133,4.281-32.734
	c-40.488-10.683-56.267-29.993-47.282-57.908c5.203-28.475,32.04-41.136,80.521-37.975
	C328.561,396.812,343.405,400.748,357.284,407.425"/>
<polyline fill="#3D6AB9" points="187.307,279.692 226.948,279.692 253.076,325.999 210.617,373.509 171.198,373.509 
	203.973,325.999 187.307,279.692 "/>
<polyline fill="#3D6AB9" points="385.929,395.159 439.161,395.159 410.281,553.926 357.284,553.926 385.929,395.159 "/>
<path fill="#3D6AB9" d="M467.6,397.407h52.63l-4.508,27.669c20.72-19.725,44.821-29.694,72.309-29.917l-9.415,49.099
	c-37.913-0.389-60.786,3.271-68.534,10.984l-18.274,98.684h-52.646L467.6,397.407"/>
</svg>
