<?xml version="1.0" encoding="utf-8"?>
<!-- Generator: Adobe Illustrator 16.0.4, SVG Export Plug-In . SVG Version: 6.00 Build 0)  -->
<!DOCTYPE svg PUBLIC "-//W3C//DTD SVG 1.1//EN" "http://www.w3.org/Graphics/SVG/1.1/DTD/svg11.dtd">
<svg version="1.1" id="Layer_1" xmlns="http://www.w3.org/2000/svg" xmlns:xlink="http://www.w3.org/1999/xlink" x="0px" y="0px"
	 width="136.549px" height="114.79px" viewBox="0 0 136.549 114.79" enable-background="new 0 0 136.549 114.79"
	 xml:space="preserve">
<path fill="#FFD100" d="M136.549,112.64c0,1.188-0.962,2.15-2.15,2.15H2.149c-1.187,0-2.149-0.963-2.149-2.15V2.15
	C0,0.962,0.962,0,2.149,0h132.25c1.188,0,2.15,0.962,2.15,2.15V112.64z"/>
<polygon fill="#1D1D1B" points="92.49,16.162 125.568,16.162 108.275,41.147 74.802,41.147 79.957,37.499 82.1,28.933 
	86.701,26.791 "/>
<path fill="#1D1D1B" d="M56.717,33.969c-0.476-1.021-0.873-2.277-0.873-3.45c0-1.875,0.992-3.808,1.864-4.918
	c0,0,2.263-2.479,3.729-4.046c1.868-1.997,2.933-3.114,4.838-5.076l1.071,2.3L56.717,33.969z"/>
<path fill="#1D1D1B" d="M60.088,33.097l9.678-7.773l4.996-9.321l2.381,3.411L62.904,39.403c-1.663-0.888-3.227-1.964-4.469-3.266
	L60.088,33.097z"/>
<path fill="#1D1D1B" d="M71.51,41.148c-1.561,0-2.899-0.167-4.292-0.475l2.032-6.188l7.496-5.513l2.578-7.297l6.465-5.275
	l1.468,2.181L71.51,41.148z"/>
<path fill="#1D1D1B" d="M44.7,55.822l-2.023,1.19l-2.816,6.861h6.227l4.066-5.767c-2.085-1.704-3.815-3.792-5.235-6.135L44.7,55.822
	z"/>
<path fill="#1D1D1B" d="M49.102,65.896l-5.473,5.354h6.94l6.529-9.437c-2.459-0.752-4.612-1.896-6.489-3.346L49.102,65.896z"/>
<path fill="#1D1D1B" d="M40.06,48.208l-2.221,1.388l-2.34,6.901h5.513l3.513-5.13c-1.541-2.628-2.593-5.223-3.038-7.998
	L40.06,48.208z"/>
<path fill="#1D1D1B" d="M40.654,33.136l-1.864,5.671l-5.354,3.094l-2.975,7.377h5.791l5.065-7.294
	c-0.045-0.535-0.068-1.078-0.068-1.63c0-2.834,0.079-4.997,1.507-8.091L40.654,33.136z"/>
<path fill="#1D1D1B" d="M47.595,25.839c2.538-2.856,5.961-5.279,10.188-6.099l-2.533-3.895L47.595,25.839z"/>
<polygon fill="#1D1D1B" points="46.048,15.923 48.031,18.621 31.493,42.06 26.337,42.06 28.994,35.159 35.221,30.678 39.028,22.865 
	"/>
<polygon fill="#1D1D1B" points="36.688,15.923 38.552,18.74 27.288,34.802 21.379,34.802 23.679,28.417 28.28,25.641 28.796,23.062 
	"/>
<polygon fill="#1D1D1B" points="28.479,18.66 22.014,27.782 16.224,27.782 19.316,20.683 26.536,15.923 "/>
<path fill="#1D1D1B" d="M48.071,79.937l10.153-10.154l0.238-7.455c1.954,0.513,3.077,0.74,5.077,1.031
	c2.425,0.352,3.815,0.476,6.266,0.476h22.607L80.988,79.937H48.071z"/>
<polygon fill="#1D1D1B" points="17.271,102.39 14.164,102.39 10.088,89.501 12.934,89.501 15.727,98.563 15.761,98.563 
	18.588,89.501 21.435,89.501 "/>
<polygon fill="#1D1D1B" points="22.33,89.501 31.708,89.501 31.708,91.885 25.086,91.885 25.086,94.646 31.164,94.646 
	31.164,96.849 25.086,96.849 25.086,100.007 31.849,100.007 31.849,102.391 22.33,102.391 "/>
<path fill="#1D1D1B" d="M42.597,100.929c-0.984,1.299-2.23,1.769-3.442,1.769c-3.864,0-6.165-2.978-6.165-6.696
	c0-3.828,2.301-6.806,6.165-6.806c2.564,0,5.005,1.606,5.286,4.548h-2.635c-0.333-1.443-1.334-2.166-2.651-2.166
	c-2.477,0-3.408,2.166-3.408,4.424c0,2.147,0.931,4.313,3.408,4.313c1.809,0,2.827-0.976,2.985-2.78h-2.775v-2.111h5.269v6.967
	h-1.756L42.597,100.929z"/>
<path fill="#1D1D1B" d="M50.466,89.501h2.827l4.689,12.889h-2.863l-0.948-2.869h-4.689l-0.984,2.869h-2.792L50.466,89.501z
	 M50.202,97.408h3.249l-1.581-4.729h-0.035L50.202,97.408z"/>
<path fill="#1D1D1B" d="M67.606,100.929c-0.984,1.299-2.23,1.769-3.442,1.769C60.3,102.697,58,99.72,58,96.001
	c0-3.828,2.301-6.806,6.165-6.806c2.564,0,5.005,1.606,5.286,4.548h-2.635c-0.333-1.443-1.334-2.166-2.651-2.166
	c-2.477,0-3.408,2.166-3.408,4.424c0,2.147,0.931,4.313,3.408,4.313c1.809,0,2.827-0.976,2.985-2.78h-2.775v-2.111h5.269v6.967
	h-1.756L67.606,100.929z"/>
<polygon fill="#1D1D1B" points="71.874,89.501 81.252,89.501 81.252,91.885 74.631,91.885 74.631,94.646 80.708,94.646 
	80.708,96.849 74.631,96.849 74.631,100.007 81.393,100.007 81.393,102.391 71.874,102.391 "/>
<path fill="#1D1D1B" d="M83.431,89.501h6.761c2.248,0,3.671,1.607,3.671,3.557c0,1.517-0.579,2.654-1.985,3.231v0.036
	c1.353,0.379,1.74,1.697,1.828,3.014c0.051,0.813,0.018,2.348,0.526,3.051h-2.757c-0.316-0.812-0.299-2.058-0.439-3.086
	c-0.193-1.354-0.703-1.949-2.091-1.949h-2.757v5.035h-2.757V89.501z M86.188,95.332h3.021c1.246,0,1.896-0.542,1.896-1.841
	c0-1.245-0.649-1.787-1.896-1.787h-3.021V95.332z"/>
<path fill="#1D1D1B" d="M96.287,96.776h-1.16v-2.094h1.16v-5.182h5.408c3.249,0,5.689,2.113,5.689,6.372
	c0,3.737-1.861,6.517-5.689,6.517h-5.408V96.776z M99.043,94.683h2.811v2.111h-2.811v3.213h2.459c1.599,0,3.127-1.011,3.127-3.863
	c0-2.598-0.896-4.26-3.619-4.26h-1.967V94.683z"/>
<rect x="109.475" y="89.501" fill="#1D1D1B" width="2.758" height="12.889"/>
<polygon fill="#1D1D1B" points="114.832,89.501 117.572,89.501 122.807,98.147 122.841,98.147 122.841,89.501 125.422,89.501 
	125.422,102.391 122.665,102.391 117.449,93.762 117.414,93.762 117.414,102.391 114.832,102.391 "/>
</svg>
