<?xml version="1.0" encoding="utf-8"?>
<!-- Generator: Adobe Illustrator 16.0.4, SVG Export Plug-In . SVG Version: 6.00 Build 0)  -->
<!DOCTYPE svg PUBLIC "-//W3C//DTD SVG 1.1//EN" "http://www.w3.org/Graphics/SVG/1.1/DTD/svg11.dtd">
<svg version="1.1" id="Layer_1" xmlns="http://www.w3.org/2000/svg" xmlns:xlink="http://www.w3.org/1999/xlink" x="0px" y="0px"
	 width="968.204px" height="270.138px" viewBox="0 0 968.204 270.138" enable-background="new 0 0 968.204 270.138"
	 xml:space="preserve">
<g>
	<path fill="#0D4F9E" d="M353.146,248.799l0.012-215.648c0,0,92.661-0.141,94.376-0.141c60.492,0,88.659,22.81,88.659,73.047v8.044
		c0,37.605-14.738,55.958-43.409,60.51l-4.601,0.721l48.862,73.401h-48.1l-63.588-97.797c6.543-0.072,16.149-0.288,20.866-0.396
		c1.907-0.048,3.178-0.084,3.424-0.084c24.821,0,37.409-9.549,37.409-35.791v-4.591c0-17.503-4.696-37.292-36.196-37.292
		c-3.297,0-32.557,0.006-44.133,0.201l-5.864,0.105l0.09,175.71H353.146"/>
	<path fill="#0D4F9E" d="M131.792,156.714c-38.722,0-70.221,31.494-70.221,70.213c0,8.87,1.66,17.542,4.928,25.782l0.03,0.108
		l0.087,0.048c0.88,0.517,1.844,1.069,2.945,1.669c19.002,10.21,40.526,15.604,62.237,15.604c22.864,0,45.397-5.946,65.15-17.213
		l0.099-0.06l0.03-0.084c3.273-8.265,4.939-16.96,4.939-25.854C202.016,188.208,170.516,156.714,131.792,156.714 M131.792,260.084
		c-26.482,0-48.037-21.561-48.037-48.04c0-26.502,21.555-48.062,48.037-48.062c26.491,0,48.033,21.561,48.033,48.062
		C179.825,238.524,158.282,260.084,131.792,260.084 M131.792,119.816c38.724,0,70.224-31.5,70.224-70.233
		c0-8.798-1.637-17.44-4.871-25.668l-0.045-0.093l-0.078-0.054c-19.78-11.284-42.331-17.245-65.225-17.245
		c-22.884,0-45.442,5.961-65.233,17.245l-0.072,0.048l-0.051,0.099c-3.228,8.222-4.87,16.864-4.87,25.668
		C61.57,88.316,93.07,119.816,131.792,119.816 M131.792,16.456c26.491,0,48.033,21.548,48.033,48.036
		c0,26.494-21.542,48.042-48.033,48.042c-26.482,0-48.042-21.548-48.042-48.042C83.749,38.003,105.31,16.456,131.792,16.456
		 M165.177,138.566l10.855-1.145c29.137-3.062,58.06-9.261,85.911-18.419l0.234-0.066l-0.03-0.246
		c-1.508-10.087-4.195-19.981-7.994-29.434l-0.15-0.363l-0.301,0.24c-23.227,18.608-49.715,31.395-78.704,38.007l-10.462,2.372
		l10.141-3.48c28.923-9.924,53.67-29.821,69.666-56.012l0.111-0.147l-0.111-0.153c-5.699-9.354-12.6-17.996-20.479-25.702
		l-0.411-0.393l-0.081,0.559c-5.375,46.427-44.703,81.437-91.484,81.437c-23.474,0-45.841-8.837-62.961-24.888
		C52.973,85.782,42.838,65.648,40.385,44.018l-0.072-0.57l-0.421,0.405C31.998,51.546,25.08,60.18,19.348,69.545l-0.1,0.156
		l0.1,0.141c16.431,27.041,42.033,47.268,72.05,56.958l10.216,3.291l-10.504-2.177c-30.022-6.261-57.42-19.113-81.473-38.184
		L9.33,89.478l-0.147,0.363c-3.636,9.219-6.225,18.849-7.714,28.65l-0.036,0.24l0.24,0.075
		c28.037,9.261,57.149,15.527,86.502,18.614l10.885,1.145H0v0.282c0.048,14.005,2.294,27.788,6.672,40.982l0.105,0.343l0.3-0.205
		c24.815-15.224,51.862-25.691,80.386-31.061l7.102-1.357l-6.79,2.438c-28.602,10.3-52.976,30.376-68.6,56.585l-0.081,0.139
		l0.081,0.138c5.84,9.567,12.9,18.401,20.987,26.221l0.438,0.421l0.06-0.589c4.601-47.373,44.016-83.095,91.659-83.095
		c23.491,0,45.847,8.841,62.972,24.888c16.102,15.08,26.254,35.421,28.597,57.271l0.075,0.576l0.406-0.408
		c7.945-7.82,14.857-16.624,20.584-26.173l0.066-0.145l-0.084-0.162c-15.549-25.572-39.551-45.288-67.588-55.486l-6.784-2.474
		l7.083,1.387c28.008,5.387,54.574,15.681,78.966,30.587l0.3,0.187l0.117-0.343c4.3-13.104,6.52-26.785,6.556-40.7v-0.282
		L165.177,138.566z"/>
	<polyline fill="#0D4F9E" points="633.496,28.416 646.708,0 699.51,0 673.817,28.416 633.496,28.416 	"/>
	<polyline fill="#0D4F9E" points="918.729,33.079 968.204,33.079 909.984,248.734 825.221,248.799 767.11,33.079 816.608,33.079 
		867.633,209.541 918.729,33.079 	"/>
	<path fill="#0D4F9E" d="M646.3,255.04c-40.13,0-83.215-28.353-83.215-97.929c0-3.543,0.036-105.183,0.049-124.002h48.79
		c0.023,19.789,0.168,131.575,0.168,132.975c0,32.695,23.566,44.55,39.397,44.55h9.309c16.083,0,40.01-11.854,40.01-44.55
		c0-1.399-0.061-113.18-0.072-132.975h48.922c0.024,18.807,0.132,120.459,0.132,124.002c0,69.576-42.964,97.929-83.19,97.929H646.3"
		/>
</g>
</svg>
