<?xml version="1.0" encoding="utf-8"?>
<!-- Generator: Adobe Illustrator 16.0.4, SVG Export Plug-In . SVG Version: 6.00 Build 0)  -->
<!DOCTYPE svg PUBLIC "-//W3C//DTD SVG 1.1//EN" "http://www.w3.org/Graphics/SVG/1.1/DTD/svg11.dtd">
<svg version="1.1" id="Layer_1" xmlns="http://www.w3.org/2000/svg" xmlns:xlink="http://www.w3.org/1999/xlink" x="0px" y="0px"
	 width="103px" height="41px" viewBox="-2 -119 103 41" enable-background="new -2 -119 103 41" xml:space="preserve">
<rect x="-2" y="-119" fill="#EA212D" width="103" height="41"/>
<g>
	<rect x="12" y="-108.436" fill="none" width="77" height="20.328"/>
	<path fill="#FFFFFF" d="M45.96-108.436h19.717v3.474h-3.126v0.218l6.732,8.467h0.48l6.733-8.033v-0.651h-2.886v-3.474H89v3.474
		h-3.607L71.929-88.245h-9.137l-13.225-16.717h-2.242c1.593,1.198,2.665,2.755,2.665,4.696v1.954
		c0,3.387-5.313,10.204-15.388,10.204H12v-3.473h3.126v-13.026H12v-3.474h25.006c2.577,0,6.193,0.72,8.955,2.243V-108.436z
		 M25.224-104.391v12.592h7.214c3.15,0,6.972-2.649,6.972-6.296c0-2.453-2.644-6.296-7.213-6.296L25.224-104.391L25.224-104.391z"/>
</g>
</svg>
