<?xml version="1.0" encoding="utf-8"?>
<!-- Generator: Adobe Illustrator 16.0.4, SVG Export Plug-In . SVG Version: 6.00 Build 0)  -->
<!DOCTYPE svg PUBLIC "-//W3C//DTD SVG 1.1//EN" "http://www.w3.org/Graphics/SVG/1.1/DTD/svg11.dtd">
<svg version="1.1" id="Layer_1" xmlns="http://www.w3.org/2000/svg" xmlns:xlink="http://www.w3.org/1999/xlink" x="0px" y="0px"
	 width="32px" height="32px" viewBox="0 0 32 32" enable-background="new 0 0 32 32" xml:space="preserve">
<path fill="#333333" d="M25.947,20.053C27.215,21.32,28,23.07,28,25s-0.785,3.68-2.053,4.947l0.709,0.709
	C28.104,29.209,29,27.209,29,25s-0.896-4.209-2.344-5.656L25.947,20.053z"/>
<path fill="#333333" d="M27,25c0-1.656-0.672-3.156-1.758-4.242l-0.709,0.709C25.439,22.371,26,23.621,26,25
	s-0.561,2.629-1.467,3.533l0.709,0.709C26.328,28.156,27,26.656,27,25z"/>
<path fill="#333333" d="M23.828,22.172L23.12,22.88C23.664,23.423,24,24.173,24,25s-0.336,1.577-0.88,2.12l0.708,0.708
	C24.553,27.104,25,26.104,25,25S24.553,22.896,23.828,22.172z"/>
<path fill="#969696" d="M25.947,20.053C27.215,21.32,28,23.07,28,25s-0.785,3.68-2.053,4.947l0.709,0.709
	C28.104,29.209,29,27.209,29,25s-0.896-4.209-2.344-5.656L25.947,20.053z"/>
<path fill="#969696" d="M27,25c0-1.656-0.672-3.156-1.758-4.242l-0.709,0.709C25.439,22.371,26,23.621,26,25
	s-0.561,2.629-1.467,3.533l0.709,0.709C26.328,28.156,27,26.656,27,25z"/>
<path fill="#969696" d="M23.828,22.172L23.12,22.88C23.664,23.423,24,24.173,24,25s-0.336,1.577-0.88,2.12l0.708,0.708
	C24.553,27.104,25,26.104,25,25S24.553,22.896,23.828,22.172z"/>
<g>
	<path fill="#969696" d="M19.898,8.066C19.368,5.408,16.688,3,14,3c-3,0,0,0-3,0c-4,0-8,4-8,8c0,3,0,7,0,9
		c0,1.316,0.439,2.629,1.163,3.803L19.898,8.066z"/>
	<path fill="#969696" d="M7.84,27.195C8.842,27.701,9.919,28,11,28c2,0,3,0,5,0s4-2,4-4s0-4,0-4h3l-2.391-5.575L7.84,27.195z"/>
</g>
<path fill="#333333" d="M2.5,30.5c-0.384,0-0.768-0.146-1.061-0.439c-0.586-0.586-0.586-1.535,0-2.121l26-26
	c0.586-0.586,1.535-0.586,2.121,0c0.586,0.585,0.586,1.536,0,2.121l-26,26C3.268,30.354,2.884,30.5,2.5,30.5z"/>
</svg>
