<?xml version="1.0" encoding="utf-8"?>
<!-- Generator: Adobe Illustrator 16.0.4, SVG Export Plug-In . SVG Version: 6.00 Build 0)  -->
<!DOCTYPE svg PUBLIC "-//W3C//DTD SVG 1.1//EN" "http://www.w3.org/Graphics/SVG/1.1/DTD/svg11.dtd">
<svg version="1.1" id="Layer_1" xmlns="http://www.w3.org/2000/svg" xmlns:xlink="http://www.w3.org/1999/xlink" x="0px" y="0px"
	 width="32px" height="32px" viewBox="0 0 32 32" enable-background="new 0 0 32 32" xml:space="preserve">
<circle fill="#E5E5E5" cx="6" cy="19" r="6.5"/>
<circle fill="#E5E5E5" cx="25" cy="19" r="6.5"/>
<circle fill="#E5E5E5" cx="14.5" cy="16.5" r="9"/>
<rect x="5.5" y="19.5" fill="#E5E5E5" width="19" height="6"/>
<rect x="19.423" y="30.43" transform="matrix(-0.9285 -0.3714 0.3714 -0.9285 26.9098 67.1706)" fill="#00A3FF" width="0.999" height="1.129"/>
<rect x="8.915" y="27.023" transform="matrix(-0.9285 -0.3712 0.3712 -0.9285 7.9158 56.6985)" fill="#00A3FF" width="1" height="1.128"/>
<rect x="11.5" y="28.5" fill="#333333" width="6" height="1"/>
<rect x="14.002" y="26" transform="matrix(0.8664 -0.4994 0.4994 0.8664 -12.5445 11.117)" fill="#333333" width="0.999" height="5.999"/>
<rect x="14" y="26.001" transform="matrix(0.8659 0.5001 -0.5001 0.8659 16.4475 -3.3642)" fill="#333333" width="1" height="5.999"/>
</svg>
