<?xml version="1.0" encoding="utf-8"?>
<!-- Generator: Adobe Illustrator 16.0.4, SVG Export Plug-In . SVG Version: 6.00 Build 0)  -->
<!DOCTYPE svg PUBLIC "-//W3C//DTD SVG 1.1//EN" "http://www.w3.org/Graphics/SVG/1.1/DTD/svg11.dtd">
<svg version="1.1" id="Layer_1" xmlns="http://www.w3.org/2000/svg" xmlns:xlink="http://www.w3.org/1999/xlink" x="0px" y="0px"
	 width="32px" height="32px" viewBox="-0.5 0.5 32 32" enable-background="new -0.5 0.5 32 32" xml:space="preserve">
<circle fill="#FFCE00" cx="20" cy="12" r="4.5"/>
<circle fill="#E5E5E5" cx="6" cy="19" r="6.5"/>
<circle fill="#E5E5E5" cx="25" cy="19" r="6.5"/>
<circle fill="#E5E5E5" cx="14.5" cy="16.5" r="9"/>
<rect x="5.5" y="19.5" fill="#E5E5E5" width="19" height="6"/>
<rect x="19.5" y="0.5" fill="#FFCE00" width="1" height="5"/>
<rect x="26.5" y="11.5" fill="#FFCE00" width="5" height="1"/>
<rect x="25.871" y="3.483" transform="matrix(0.7071 0.7071 -0.7071 0.7071 11.7042 -16.9985)" fill="#FFCE00" width="1" height="4.292"/>
<rect x="13" y="3.354" transform="matrix(0.7071 -0.7071 0.7071 0.7071 0.065 11.1569)" fill="#FFCE00" width="1" height="4.292"/>
<rect x="12" y="28.5" fill="#333333" width="6" height="1"/>
<rect x="14.502" y="26" transform="matrix(0.8658 -0.5003 0.5003 0.8658 -12.4972 11.3968)" fill="#333333" width="0.999" height="5.999"/>
<rect x="14.5" y="26.001" transform="matrix(0.8659 0.5001 -0.5001 0.8659 16.5145 -3.6144)" fill="#333333" width="1" height="5.999"/>
<rect x="4.001" y="28.5" fill="#333333" width="6" height="1"/>
<rect x="6.502" y="26.001" transform="matrix(0.8661 -0.4999 0.4999 0.8661 -13.5598 7.3846)" fill="#333333" width="1" height="5.999"/>
<rect x="6.501" y="26.003" transform="matrix(0.8651 0.5016 -0.5016 0.8651 15.4916 0.4005)" fill="#333333" width="1.001" height="5.998"/>
<rect x="20.001" y="28.5" fill="#333333" width="6" height="1"/>
<rect x="22.502" y="25.999" transform="matrix(0.8661 -0.4999 0.4999 0.8661 -11.4166 15.3829)" fill="#333333" width="1" height="6"/>
<rect x="22.5" y="26.001" transform="matrix(0.8658 0.5003 -0.5003 0.8658 17.5959 -7.6169)" fill="#333333" width="0.999" height="5.998"/>
</svg>
