<?xml version="1.0" encoding="utf-8"?>
<!-- Generator: Adobe Illustrator 16.0.4, SVG Export Plug-In . SVG Version: 6.00 Build 0)  -->
<!DOCTYPE svg PUBLIC "-//W3C//DTD SVG 1.1//EN" "http://www.w3.org/Graphics/SVG/1.1/DTD/svg11.dtd">
<svg version="1.1" id="Layer_1" xmlns="http://www.w3.org/2000/svg" xmlns:xlink="http://www.w3.org/1999/xlink" x="0px" y="0px"
	 width="32px" height="32px" viewBox="-0.5 0.5 32 32" enable-background="new -0.5 0.5 32 32" xml:space="preserve">
<circle fill="#FFCE00" cx="16" cy="17" r="6.5"/>
<rect x="15.5" y="3.5" fill="#FFCE00" width="1" height="5"/>
<rect x="15.5" y="25.5" fill="#FFCE00" width="1" height="5"/>
<rect x="24.5" y="16.5" fill="#FFCE00" width="5" height="1"/>
<rect x="15.5" y="3.5" fill="#FFCE00" width="1" height="4"/>
<rect x="15.5" y="25.5" fill="#FFCE00" width="1" height="5"/>
<rect x="24.5" y="16.5" fill="#FFCE00" width="5" height="1"/>
<rect x="2.5" y="16.5" fill="#FFCE00" width="5" height="1"/>
<rect x="23.028" y="7.325" transform="matrix(-0.7071 -0.7071 0.7071 -0.7071 33.4672 32.8054)" fill="#FFCE00" width="1" height="4.293"/>
<rect x="8.221" y="22.486" transform="matrix(-0.7071 -0.7071 0.7071 -0.7071 -2.2793 47.6135)" fill="#FFCE00" width="1" height="3.586"/>
<rect x="23.027" y="22.382" transform="matrix(-0.7071 0.7071 -0.7071 -0.7071 57.5078 25.2361)" fill="#FFCE00" width="1" height="4.292"/>
<rect x="7.972" y="7.325" transform="matrix(-0.7071 0.7071 -0.7071 -0.7071 21.1598 10.1782)" fill="#FFCE00" width="1" height="4.293"/>
</svg>
