<?xml version="1.0" encoding="utf-8"?>
<!-- Generator: Adobe Illustrator 16.0.4, SVG Export Plug-In . SVG Version: 6.00 Build 0)  -->
<!DOCTYPE svg PUBLIC "-//W3C//DTD SVG 1.1//EN" "http://www.w3.org/Graphics/SVG/1.1/DTD/svg11.dtd">
<svg version="1.1" id="Layer_1" xmlns="http://www.w3.org/2000/svg" xmlns:xlink="http://www.w3.org/1999/xlink" x="0px" y="0px"
	 width="32px" height="32px" viewBox="0 0 32 32" enable-background="new 0 0 32 32" xml:space="preserve">
<path fill="none" stroke="#937E65" stroke-miterlimit="10" d="M10.133,28.406c2.029,1.209,4.979,1.209,6.013,1.209
	c8.141,0,8.825-9.75,0-9.75c-4.692,0-7.916,1.19-7.916,3.166c0,2.917,5.072,3.209,7.916,3.209c1.411,0,8.348-0.283,8.465-4.365
	c0.135-4.719-2.822-6.76-8.465-6.76c-5.642,0-9.773,1.678-9.615,4.283c0.09,1.478,2.965,3.468,9.615,3.468
	c7.053,0,9.943-2.323,10.506-4.511c0.718-2.792-2.531-8.032-10.506-8.032c-5.744,0-10.351,2.24-10.351,4.288
	c0,1.337,1.831,2.879,10.45,2.879c6.277,0,11.715-0.81,11.219-5.824c-0.281-2.844-4.5-5.489-11.318-5.489
	C10.62,6.177,4.5,7.665,5.183,9.885c0.5,1.625,6.031,2.275,10.963,2.25c6.006-0.031,12.297-1.688,12.297-4.812
	c0-3.982-7.67-4.95-12.297-4.938C11.616,2.398,5.839,2.854,3.558,5.573"/>
</svg>
