<?xml version="1.0" encoding="utf-8"?>
<!-- Generator: Adobe Illustrator 16.0.4, SVG Export Plug-In . SVG Version: 6.00 Build 0)  -->
<!DOCTYPE svg PUBLIC "-//W3C//DTD SVG 1.1//EN" "http://www.w3.org/Graphics/SVG/1.1/DTD/svg11.dtd">
<svg version="1.1" id="Layer_1" xmlns="http://www.w3.org/2000/svg" xmlns:xlink="http://www.w3.org/1999/xlink" x="0px" y="0px"
	 width="32px" height="32px" viewBox="-0.5 0.5 32 32" enable-background="new -0.5 0.5 32 32" xml:space="preserve">
<rect x="6.686" y="30.849" transform="matrix(0.9286 0.3711 -0.3711 0.9286 12.1454 -0.4285)" fill="#00A3FF" width="1" height="1.001"/>
<rect x="8.314" y="26.779" transform="matrix(0.9286 0.3711 -0.3711 0.9286 10.7509 -1.3231)" fill="#00A3FF" width="1" height="0.999"/>
<rect x="10.5" y="28.749" transform="matrix(0.9286 0.3711 -0.3711 0.9286 11.6622 -1.9891)" fill="#00A3FF" width="1" height="1.129"/>
<rect x="14.314" y="26.779" transform="matrix(0.9286 0.3711 -0.3711 0.9286 11.1793 -3.5496)" fill="#00A3FF" width="1" height="0.999"/>
<rect x="16.5" y="28.749" transform="matrix(0.9285 0.3714 -0.3714 0.9285 12.1024 -4.2169)" fill="#00A3FF" width="0.999" height="1.128"/>
<rect x="18.685" y="30.849" transform="matrix(0.9287 0.3707 -0.3707 0.9287 12.9889 -4.8786)" fill="#00A3FF" width="1.001" height="1.001"/>
<rect x="20.314" y="26.779" transform="matrix(0.9286 0.3711 -0.3711 0.9286 11.6076 -5.7759)" fill="#00A3FF" width="1" height="0.999"/>
<rect x="22.499" y="28.748" transform="matrix(0.9287 0.3709 -0.3709 0.9287 12.5118 -6.439)" fill="#00A3FF" width="0.998" height="1.128"/>
<circle fill="#E5E5E5" cx="6" cy="19" r="6.5"/>
<circle fill="#E5E5E5" cx="25" cy="19" r="6.5"/>
<circle fill="#E5E5E5" cx="14.5" cy="16.5" r="9"/>
<rect x="5.5" y="19.5" fill="#E5E5E5" width="19" height="6"/>
</svg>
