<?xml version="1.0" encoding="utf-8"?>
<!-- Generator: Adobe Illustrator 16.0.4, SVG Export Plug-In . SVG Version: 6.00 Build 0)  -->
<!DOCTYPE svg PUBLIC "-//W3C//DTD SVG 1.1//EN" "http://www.w3.org/Graphics/SVG/1.1/DTD/svg11.dtd">
<svg version="1.1" id="Layer_1" xmlns="http://www.w3.org/2000/svg" xmlns:xlink="http://www.w3.org/1999/xlink" x="0px" y="0px"
	 width="32px" height="32px" viewBox="0 0 32 32" enable-background="new 0 0 32 32" xml:space="preserve">
<path fill="#646377" d="M22,18c-3.866,0-7-3.135-7-7c0-1.931,0.782-3.679,2.046-4.944C16.702,6.02,16.354,6,16,6
	C10.477,6,6,10.478,6,16s4.477,10,10,10c5.264,0,9.567-4.069,9.961-9.231C24.834,17.544,23.471,18,22,18z"/>
<polygon fill="#646377" points="21,11.5 23,12 23.5,14 24,12 26,11.5 24,11 23.5,9 23,11 "/>
<polygon fill="#646377" points="18,7.5 19.2,7.8 19.5,9 19.8,7.8 21,7.5 19.8,7.2 19.5,6 19.2,7.2 "/>
</svg>
