<?xml version="1.0" encoding="utf-8"?>
<!-- Generator: Adobe Illustrator 16.0.4, SVG Export Plug-In . SVG Version: 6.00 Build 0)  -->
<!DOCTYPE svg PUBLIC "-//W3C//DTD SVG 1.1//EN" "http://www.w3.org/Graphics/SVG/1.1/DTD/svg11.dtd">
<svg version="1.1" id="Layer_1" xmlns="http://www.w3.org/2000/svg" xmlns:xlink="http://www.w3.org/1999/xlink" x="0px" y="0px"
	 width="32px" height="32px" viewBox="-0.5 0.5 32 32" enable-background="new -0.5 0.5 32 32" xml:space="preserve">
<circle fill="#E5E5E5" cx="6" cy="19" r="6.5"/>
<circle fill="#E5E5E5" cx="25" cy="19" r="6.5"/>
<circle fill="#E5E5E5" cx="14.5" cy="16.5" r="9"/>
<rect x="5.5" y="19.5" fill="#E5E5E5" width="19" height="6"/>
<circle fill="#E5E5E5" cx="5.933" cy="19" r="6.5"/>
<circle fill="#E5E5E5" cx="24.933" cy="19" r="6.5"/>
<circle fill="#E5E5E5" cx="14.433" cy="16.5" r="9"/>
<rect x="7.433" y="28.5" fill="#333333" width="6" height="1"/>
<rect x="9.933" y="26" transform="matrix(-0.8661 0.4999 -0.4999 -0.8661 33.9666 48.9004)" fill="#333333" width="1" height="5.999"/>
<rect x="9.933" y="26.001" transform="matrix(-0.8659 -0.5001 0.5001 -0.8659 4.9643 59.3306)" fill="#333333" width="1" height="5.999"/>
<rect x="16.433" y="28.5" fill="#333333" width="6" height="1"/>
<rect x="18.933" y="26" transform="matrix(-0.8661 0.4999 -0.4999 -0.8661 50.7612 44.4011)" fill="#333333" width="1" height="5.999"/>
<rect x="18.933" y="26" transform="matrix(-0.8661 -0.4999 0.4999 -0.8661 21.7659 63.8311)" fill="#333333" width="1" height="5.999"/>
<rect x="5.318" y="30.041" transform="matrix(0.9286 0.3711 -0.3711 0.9286 11.7716 0.0261)" fill="#00A3FF" width="1" height="1.129"/>
<rect x="22.755" y="30.041" transform="matrix(0.9287 0.3707 -0.3707 0.9287 13.0031 -6.4406)" fill="#00A3FF" width="1.001" height="1.13"/>
<rect x="14.433" y="30.041" transform="matrix(0.9286 0.3711 -0.3711 0.9286 12.4223 -3.3559)" fill="#00A3FF" width="1" height="1.129"/>
<rect x="5.318" y="26.228" transform="matrix(0.9286 0.3711 -0.3711 0.9286 10.357 -0.246)" fill="#00A3FF" width="1" height="1.129"/>
<rect x="22.606" y="26.228" transform="matrix(0.9286 0.3711 -0.3711 0.9286 11.5912 -6.661)" fill="#00A3FF" width="1" height="1.129"/>
<rect x="14.606" y="26.228" transform="matrix(0.9286 0.3711 -0.3711 0.9286 11.0201 -3.6926)" fill="#00A3FF" width="1" height="1.129"/>
<rect x="4.026" y="27.978" transform="matrix(0.9286 0.3711 -0.3711 0.9286 10.9141 0.3581)" fill="#00A3FF" width="1" height="1.129"/>
<rect x="24.196" y="27.978" transform="matrix(0.9286 0.3711 -0.3711 0.9286 12.354 -7.126)" fill="#00A3FF" width="1" height="1.129"/>
<rect x="2.505" y="30.145" transform="matrix(0.9286 0.3711 -0.3711 0.9286 11.6096 1.0772)" fill="#00A3FF" width="1" height="1.129"/>
<rect x="7.433" y="28.5" fill="#333333" width="6" height="1"/>
<rect x="9.933" y="26" transform="matrix(-0.8661 0.4999 -0.4999 -0.8661 33.9666 48.9004)" fill="#333333" width="1" height="5.999"/>
<rect x="9.933" y="26.001" transform="matrix(-0.8659 -0.5001 0.5001 -0.8659 4.9643 59.3306)" fill="#333333" width="1" height="5.999"/>
<rect x="16.433" y="28.5" fill="#333333" width="6" height="1"/>
<rect x="18.933" y="26" transform="matrix(-0.8661 0.4999 -0.4999 -0.8661 50.7612 44.4011)" fill="#333333" width="1" height="5.999"/>
<rect x="18.933" y="26" transform="matrix(-0.8661 -0.4999 0.4999 -0.8661 21.7659 63.8311)" fill="#333333" width="1" height="5.999"/>
</svg>
