<?xml version="1.0" encoding="utf-8"?>
<!-- Generator: Adobe Illustrator 16.0.4, SVG Export Plug-In . SVG Version: 6.00 Build 0)  -->
<!DOCTYPE svg PUBLIC "-//W3C//DTD SVG 1.1//EN" "http://www.w3.org/Graphics/SVG/1.1/DTD/svg11.dtd">
<svg version="1.1" id="Layer_1" xmlns="http://www.w3.org/2000/svg" xmlns:xlink="http://www.w3.org/1999/xlink" x="0px" y="0px"
	 width="32px" height="32px" viewBox="-0.5 0.5 32 32" enable-background="new -0.5 0.5 32 32" xml:space="preserve">
<circle fill="#FFCE00" cx="20" cy="12" r="4.5"/>
<circle fill="#E5E5E5" cx="6" cy="19" r="6.5"/>
<circle fill="#E5E5E5" cx="25" cy="19" r="6.5"/>
<circle fill="#E5E5E5" cx="14.5" cy="16.5" r="9"/>
<rect x="5.5" y="19.5" fill="#E5E5E5" width="19" height="6"/>
<rect x="19.5" y="0.5" fill="#FFCE00" width="1" height="5"/>
<rect x="26.5" y="11.5" fill="#FFCE00" width="5" height="1"/>
<rect x="25.871" y="3.483" transform="matrix(0.7071 0.7071 -0.7071 0.7071 11.7042 -16.9985)" fill="#FFCE00" width="1" height="4.292"/>
<rect x="13" y="3.354" transform="matrix(0.7071 -0.7071 0.7071 0.7071 0.065 11.1569)" fill="#FFCE00" width="1" height="4.292"/>
<rect x="6.933" y="29" fill="#333333" width="6" height="1"/>
<rect x="9.434" y="26.5" transform="matrix(0.8661 -0.4999 0.4999 0.8661 -13.417 8.9168)" fill="#333333" width="1" height="6"/>
<rect x="9.433" y="26.502" transform="matrix(0.8659 0.5001 -0.5001 0.8659 16.0862 -1.0133)" fill="#333333" width="1" height="5.998"/>
<rect x="15.933" y="29" fill="#333333" width="6" height="1"/>
<rect x="18.433" y="26.5" transform="matrix(0.8658 -0.5003 0.5003 0.8658 -12.2196 13.4311)" fill="#333333" width="0.999" height="6"/>
<rect x="18.432" y="26.501" transform="matrix(0.8658 0.5003 -0.5003 0.8658 17.3002 -5.5142)" fill="#333333" width="0.999" height="5.998"/>
<rect x="4.816" y="30.541" transform="matrix(-0.9286 -0.3711 0.3711 -0.9286 -1.2883 61.9621)" fill="#00A3FF" width="1" height="1.128"/>
<rect x="22.254" y="30.539" transform="matrix(-0.9287 -0.3707 0.3707 -0.9287 32.3576 68.4274)" fill="#00A3FF" width="1.001" height="1.131"/>
<rect x="13.932" y="30.542" transform="matrix(-0.9285 -0.3712 0.3712 -0.9285 16.2842 65.3474)" fill="#00A3FF" width="1" height="1.129"/>
<rect x="4.817" y="26.728" transform="matrix(-0.9286 -0.3711 0.3711 -0.9286 0.1272 54.6094)" fill="#00A3FF" width="1" height="1.128"/>
<rect x="22.104" y="26.729" transform="matrix(-0.9286 -0.3711 0.3711 -0.9286 33.4679 61.026)" fill="#00A3FF" width="1" height="1.128"/>
<rect x="14.105" y="26.728" transform="matrix(-0.9286 -0.3711 0.3711 -0.9286 18.0403 58.0558)" fill="#00A3FF" width="1" height="1.128"/>
<rect x="3.525" y="28.477" transform="matrix(-0.9286 -0.3711 0.3711 -0.9286 -3.0137 57.5042)" fill="#00A3FF" width="1" height="1.129"/>
<rect x="23.694" y="28.479" transform="matrix(-0.9286 -0.3711 0.3711 -0.9286 35.8848 64.9909)" fill="#00A3FF" width="1" height="1.128"/>
<rect x="2.004" y="30.645" transform="matrix(-0.9286 -0.3711 0.3711 -0.9286 -6.7513 61.12)" fill="#00A3FF" width="1" height="1.128"/>
<rect x="6.933" y="29" fill="#333333" width="6" height="1"/>
<rect x="9.434" y="26.5" transform="matrix(0.8661 -0.4999 0.4999 0.8661 -13.417 8.9168)" fill="#333333" width="1" height="6"/>
<rect x="9.433" y="26.502" transform="matrix(0.8659 0.5001 -0.5001 0.8659 16.0862 -1.0133)" fill="#333333" width="1" height="5.998"/>
<rect x="15.933" y="29" fill="#333333" width="6" height="1"/>
<rect x="18.433" y="26.5" transform="matrix(0.8658 -0.5003 0.5003 0.8658 -12.2196 13.4311)" fill="#333333" width="0.999" height="6"/>
<rect x="18.432" y="26.501" transform="matrix(0.8658 0.5003 -0.5003 0.8658 17.3002 -5.5142)" fill="#333333" width="0.999" height="5.998"/>
</svg>
