<?xml version="1.0" encoding="utf-8"?>
<!-- Generator: Adobe Illustrator 16.0.4, SVG Export Plug-In . SVG Version: 6.00 Build 0)  -->
<!DOCTYPE svg PUBLIC "-//W3C//DTD SVG 1.1//EN" "http://www.w3.org/Graphics/SVG/1.1/DTD/svg11.dtd">
<svg version="1.1" id="Layer_1" xmlns="http://www.w3.org/2000/svg" xmlns:xlink="http://www.w3.org/1999/xlink" x="0px" y="0px"
	 width="32px" height="32px" viewBox="-0.5 0.5 32 32" enable-background="new -0.5 0.5 32 32" xml:space="preserve">
<circle fill="#FFCE00" cx="20" cy="12" r="4.5"/>
<circle fill="#E5E5E5" cx="6" cy="19" r="6.5"/>
<circle fill="#E5E5E5" cx="25" cy="19" r="6.5"/>
<circle fill="#E5E5E5" cx="14.5" cy="16.5" r="9"/>
<rect x="5.5" y="19.5" fill="#E5E5E5" width="19" height="6"/>
<rect x="19.5" y="0.5" fill="#FFCE00" width="1" height="5"/>
<rect x="26.5" y="11.5" fill="#FFCE00" width="5" height="1"/>
<rect x="25.871" y="3.483" transform="matrix(0.7071 0.7071 -0.7071 0.7071 11.7042 -16.9985)" fill="#FFCE00" width="1" height="4.292"/>
<rect x="13" y="3.354" transform="matrix(0.7071 -0.7071 0.7071 0.7071 0.065 11.1569)" fill="#FFCE00" width="1" height="4.292"/>
<rect x="6.186" y="31.35" transform="matrix(0.9286 0.3711 -0.3711 0.9286 12.2954 -0.2071)" fill="#00A3FF" width="1" height="1"/>
<rect x="7" y="29.25" transform="matrix(0.9286 0.3711 -0.3711 0.9286 11.598 -0.6545)" fill="#00A3FF" width="1" height="1.128"/>
<rect x="7.814" y="27.279" transform="matrix(0.9286 0.3711 -0.3711 0.9286 10.901 -1.1019)" fill="#00A3FF" width="1" height="1"/>
<rect x="10" y="29.25" transform="matrix(0.9286 0.3711 -0.3711 0.9286 11.8122 -1.7677)" fill="#00A3FF" width="1" height="1.128"/>
<rect x="10.814" y="27.279" transform="matrix(0.9286 0.3711 -0.3711 0.9286 11.1151 -2.2151)" fill="#00A3FF" width="1" height="1"/>
<rect x="12.186" y="31.35" transform="matrix(0.9286 0.3711 -0.3711 0.9286 12.7237 -2.4334)" fill="#00A3FF" width="1" height="1"/>
<rect x="13" y="29.25" transform="matrix(0.9286 0.3711 -0.3711 0.9286 12.0263 -2.8808)" fill="#00A3FF" width="1" height="1.128"/>
<rect x="13.814" y="27.279" transform="matrix(0.9286 0.3711 -0.3711 0.9286 11.3293 -3.3282)" fill="#00A3FF" width="1" height="1"/>
<rect x="16" y="29.25" transform="matrix(0.9286 0.3711 -0.3711 0.9286 12.2405 -3.994)" fill="#00A3FF" width="1" height="1.128"/>
<rect x="16.814" y="27.279" transform="matrix(0.9286 0.3711 -0.3711 0.9286 11.5435 -4.4413)" fill="#00A3FF" width="1" height="1"/>
<rect x="18.186" y="31.35" transform="matrix(0.9287 0.3707 -0.3707 0.9287 13.1389 -4.6578)" fill="#00A3FF" width="1.001" height="1"/>
<rect x="19" y="29.25" transform="matrix(0.9286 0.3711 -0.3711 0.9286 12.4547 -5.1072)" fill="#00A3FF" width="1" height="1.128"/>
<rect x="19.814" y="27.279" transform="matrix(0.9286 0.3711 -0.3711 0.9286 11.7576 -5.5545)" fill="#00A3FF" width="1" height="1"/>
<rect x="21.186" y="31.35" transform="matrix(0.9287 0.3707 -0.3707 0.9287 13.3526 -5.7699)" fill="#00A3FF" width="1.001" height="1"/>
<rect x="22" y="29.25" transform="matrix(0.9286 0.3711 -0.3711 0.9286 12.6688 -6.2203)" fill="#00A3FF" width="1" height="1.128"/>
</svg>
