<?xml version="1.0" encoding="utf-8"?>
<!-- Generator: Adobe Illustrator 16.0.4, SVG Export Plug-In . SVG Version: 6.00 Build 0)  -->
<!DOCTYPE svg PUBLIC "-//W3C//DTD SVG 1.1//EN" "http://www.w3.org/Graphics/SVG/1.1/DTD/svg11.dtd">
<svg version="1.1" id="Layer_1" xmlns="http://www.w3.org/2000/svg" xmlns:xlink="http://www.w3.org/1999/xlink" x="0px" y="0px"
	 width="32px" height="32px" viewBox="-0.5 0.5 32 32" enable-background="new -0.5 0.5 32 32" xml:space="preserve">
<g>
	
		<rect x="6.684" y="30.849" transform="matrix(-0.9286 -0.3711 0.3711 -0.9286 2.2234 63.127)" fill="#00A3FF" width="1" height="1.001"/>
	
		<rect x="7.498" y="28.749" transform="matrix(-0.9286 -0.3711 0.3711 -0.9286 4.5492 59.5022)" fill="#00A3FF" width="1" height="1.129"/>
	
		<rect x="8.313" y="26.779" transform="matrix(-0.9286 -0.3711 0.3711 -0.9286 6.8746 55.8793)" fill="#00A3FF" width="1" height="0.999"/>
	
		<rect x="10.498" y="28.749" transform="matrix(-0.9286 -0.3711 0.3711 -0.9286 10.335 60.6154)" fill="#00A3FF" width="1" height="1.129"/>
	
		<rect x="11.312" y="26.779" transform="matrix(-0.9286 -0.3711 0.3711 -0.9286 12.66 56.9924)" fill="#00A3FF" width="1" height="0.999"/>
	
		<rect x="12.684" y="30.849" transform="matrix(-0.9286 -0.3711 0.3711 -0.9286 13.795 65.3533)" fill="#00A3FF" width="1" height="1.001"/>
	
		<rect x="13.498" y="28.749" transform="matrix(-0.9286 -0.3711 0.3711 -0.9286 16.1208 61.7285)" fill="#00A3FF" width="1" height="1.129"/>
	
		<rect x="14.312" y="26.779" transform="matrix(-0.9286 -0.3711 0.3711 -0.9286 18.4458 58.1055)" fill="#00A3FF" width="1" height="0.999"/>
	
		<rect x="16.499" y="28.749" transform="matrix(-0.9285 -0.3714 0.3714 -0.9285 21.8955 62.8436)" fill="#00A3FF" width="0.999" height="1.129"/>
	
		<rect x="17.312" y="26.779" transform="matrix(-0.9286 -0.3711 0.3711 -0.9286 24.2317 59.2187)" fill="#00A3FF" width="1" height="0.999"/>
	
		<rect x="18.685" y="30.847" transform="matrix(-0.9287 -0.3707 0.3707 -0.9287 25.3829 67.5741)" fill="#00A3FF" width="1.001" height="1.001"/>
	
		<rect x="19.499" y="28.75" transform="matrix(-0.9285 -0.3714 0.3714 -0.9285 27.6807 63.9587)" fill="#00A3FF" width="0.999" height="1.128"/>
	
		<rect x="20.312" y="26.78" transform="matrix(-0.9286 -0.3711 0.3711 -0.9286 30.0171 60.3337)" fill="#00A3FF" width="1" height="0.999"/>
	
		<rect x="21.685" y="30.847" transform="matrix(-0.9287 -0.3707 0.3707 -0.9287 31.1691 68.6862)" fill="#00A3FF" width="1.001" height="1.001"/>
	
		<rect x="22.499" y="28.75" transform="matrix(-0.9285 -0.3714 0.3714 -0.9285 33.4652 65.0727)" fill="#00A3FF" width="0.999" height="1.128"/>
</g>
<circle fill="#E5E5E5" cx="6" cy="19" r="6.5"/>
<circle fill="#E5E5E5" cx="25" cy="19" r="6.5"/>
<circle fill="#E5E5E5" cx="14.5" cy="16.5" r="9"/>
<rect x="5.5" y="19.5" fill="#E5E5E5" width="19" height="6"/>
</svg>
